<svg xmlns="http://www.w3.org/2000/svg" version="1.1" xmlns:xlink="http://www.w3.org/1999/xlink"
     xmlns:svgjs="http://svgjs.dev/svgjs" width="2000" height="409" viewBox="0 0 2000 409">
    <g transform="matrix(1,0,0,1,-1.2121212121212466,-0.23734739245247738)">
        <svg viewBox="0 0 396 81" data-background-color="#ffffff" preserveAspectRatio="xMidYMid meet" height="409"
             width="2000" xmlns="http://www.w3.org/2000/svg" xmlns:xlink="http://www.w3.org/1999/xlink">
            <g id="tight-bounds" transform="matrix(1,0,0,1,0.2400000000000091,0.04700522931210571)">
                <svg viewBox="0 0 395.52 80.90598954137579" height="80.90598954137579" width="395.52">
                    <g>
                        <svg viewBox="0 0 510.16096086423613 104.35648605405571" height="80.90598954137579"
                             width="395.52">
                            <g transform="matrix(1,0,0,1,114.64096086423616,30.003210057123056)">
                                <svg viewBox="0 0 395.52 44.350065939809596" height="44.350065939809596" width="395.52">
                                    <g id="textblocktransform">
                                        <svg viewBox="0 0 395.52 44.350065939809596" height="44.350065939809596"
                                             width="395.52" id="textblock">
                                            <g>
                                                <svg viewBox="0 0 395.52 21.782126963732985" height="21.782126963732985"
                                                     width="395.52">
                                                    <g transform="matrix(1,0,0,1,0,0)">
                                                        <svg width="395.52" viewBox="1.4 -36.5 856.07 47.15"
                                                             height="21.782126963732985" data-palette-color="#202020">
                                                            <path d="M18.45 0.25L18.45 0.25Q14.95 0.25 11.85-1.07 8.75-2.4 6.4-4.83 4.05-7.25 2.73-10.58 1.4-13.9 1.4-18L1.4-18Q1.4-21.7 2.75-24.9 4.1-28.1 6.5-30.55 8.9-33 12.13-34.38 15.35-35.75 19.1-35.75L19.1-35.75Q24-35.75 27.75-33.65 31.5-31.55 33.3-28L33.3-28 27.2-23.4Q26-25.75 23.73-27.1 21.45-28.45 18.8-28.45L18.8-28.45Q16.8-28.45 15.13-27.63 13.45-26.8 12.23-25.33 11-23.85 10.35-21.9 9.7-19.95 9.7-17.7L9.7-17.7Q9.7-15.4 10.4-13.45 11.1-11.5 12.35-10.08 13.6-8.65 15.33-7.85 17.05-7.05 19.15-7.05L19.15-7.05Q21.7-7.05 24.03-8.33 26.35-9.6 28.3-12.1L28.3-12.1 28.3-4Q24.05 0.25 18.45 0.25ZM27.8 0L27.8-12.6 20.9-12.6 20.9-18.55 34.6-18.55 34.6 0 27.8 0ZM51.9 0.5L51.9 0.5Q48.55 0.5 45.95-0.58 43.35-1.65 41.52-3.5 39.7-5.35 38.75-7.78 37.8-10.2 37.8-12.85L37.8-12.85Q37.8-16.65 39.47-19.78 41.15-22.9 44.3-24.83 47.45-26.75 51.9-26.75L51.9-26.75Q56.35-26.75 59.47-24.85 62.6-22.95 64.25-19.88 65.9-16.8 65.9-13.2L65.9-13.2Q65.9-12.5 65.82-11.83 65.75-11.15 65.7-10.65L65.7-10.65 46.3-10.65Q46.45-8.9 47.27-7.7 48.1-6.5 49.4-5.88 50.7-5.25 52.15-5.25L52.15-5.25Q53.95-5.25 55.52-6.1 57.1-6.95 57.7-8.4L57.7-8.4 64.5-6.5Q63.5-4.45 61.67-2.88 59.85-1.3 57.37-0.4 54.9 0.5 51.9 0.5ZM46.1-15.55L46.1-15.55 57.5-15.55Q57.3-17.2 56.55-18.43 55.8-19.65 54.55-20.33 53.3-21 51.8-21L51.8-21Q50.25-21 49.02-20.33 47.8-19.65 47.05-18.43 46.3-17.2 46.1-15.55ZM94.85-16.8L94.85 0 86.85 0 86.85-14.75Q86.85-17.35 85.87-18.53 84.9-19.7 83.3-19.7L83.3-19.7Q82.2-19.7 81.05-19.1 79.9-18.5 78.97-17.45 78.05-16.4 77.55-15.05L77.55-15.05 77.55 0 69.55 0 69.55-26.25 76.75-26.25 76.75-21.85Q77.75-23.4 79.25-24.5 80.75-25.6 82.7-26.18 84.65-26.75 86.95-26.75L86.95-26.75Q89.5-26.75 91.07-25.83 92.65-24.9 93.47-23.4 94.3-21.9 94.57-20.18 94.85-18.45 94.85-16.8L94.85-16.8ZM112.69 0.5L112.69 0.5Q109.34 0.5 106.74-0.58 104.14-1.65 102.32-3.5 100.49-5.35 99.54-7.78 98.59-10.2 98.59-12.85L98.59-12.85Q98.59-16.65 100.27-19.78 101.94-22.9 105.09-24.83 108.24-26.75 112.69-26.75L112.69-26.75Q117.14-26.75 120.27-24.85 123.39-22.95 125.04-19.88 126.69-16.8 126.69-13.2L126.69-13.2Q126.69-12.5 126.62-11.83 126.54-11.15 126.49-10.65L126.49-10.65 107.09-10.65Q107.24-8.9 108.07-7.7 108.89-6.5 110.19-5.88 111.49-5.25 112.94-5.25L112.94-5.25Q114.74-5.25 116.32-6.1 117.89-6.95 118.49-8.4L118.49-8.4 125.29-6.5Q124.29-4.45 122.47-2.88 120.64-1.3 118.17-0.4 115.69 0.5 112.69 0.5ZM106.89-15.55L106.89-15.55 118.29-15.55Q118.09-17.2 117.34-18.43 116.59-19.65 115.34-20.33 114.09-21 112.59-21L112.59-21Q111.04-21 109.82-20.33 108.59-19.65 107.84-18.43 107.09-17.2 106.89-15.55ZM146.99-26.6L146.99-19.4Q144.09-19.4 141.74-18.48 139.39-17.55 138.34-15.75L138.34-15.75 138.34 0 130.34 0 130.34-26.25 137.69-26.25 137.69-20.95Q139.04-23.6 141.19-25.1 143.34-26.6 145.69-26.65L145.69-26.65Q146.24-26.65 146.52-26.65 146.79-26.65 146.99-26.6L146.99-26.6ZM148.49-7.85L148.49-7.85Q148.49-10.45 149.94-12.4 151.39-14.35 153.94-15.48 156.49-16.6 159.79-16.6L159.79-16.6Q161.39-16.6 162.94-16.32 164.49-16.05 165.64-15.55L165.64-15.55 165.64-16.7Q165.64-18.85 164.34-20 163.04-21.15 160.39-21.15L160.39-21.15Q158.19-21.15 156.26-20.4 154.34-19.65 152.19-18.25L152.19-18.25 149.79-23.35Q152.39-25.05 155.21-25.9 158.04-26.75 161.19-26.75L161.19-26.75Q167.09-26.75 170.36-23.93 173.64-21.1 173.64-15.75L173.64-15.75 173.64-8.9Q173.64-7.7 174.01-7.23 174.39-6.75 175.34-6.65L175.34-6.65 175.34 0Q174.34 0.2 173.46 0.3 172.59 0.4 171.94 0.4L171.94 0.4Q169.69 0.4 168.51-0.5 167.34-1.4 167.04-2.95L167.04-2.95 166.89-4.1Q165.14-1.85 162.71-0.68 160.29 0.5 157.64 0.5L157.64 0.5Q155.04 0.5 152.96-0.6 150.89-1.7 149.69-3.6 148.49-5.5 148.49-7.85ZM164.39-6.85L164.39-6.85Q164.94-7.3 165.29-7.85 165.64-8.4 165.64-8.9L165.64-8.9 165.64-11.25Q164.64-11.65 163.41-11.88 162.19-12.1 161.14-12.1L161.14-12.1Q158.94-12.1 157.49-11.13 156.04-10.15 156.04-8.55L156.04-8.55Q156.04-7.65 156.54-6.9 157.04-6.15 157.91-5.7 158.79-5.25 159.99-5.25L159.99-5.25Q161.19-5.25 162.39-5.7 163.59-6.15 164.39-6.85ZM177.94-13.15L177.94-13.15Q177.94-17 179.44-20.08 180.94-23.15 183.54-24.95 186.14-26.75 189.54-26.75L189.54-26.75Q192.29-26.75 194.54-25.43 196.79-24.1 197.94-21.95L197.94-21.95 197.94-36.5 205.94-36.5 205.94-8.9Q205.94-7.7 206.34-7.23 206.74-6.75 207.64-6.65L207.64-6.65 207.64 0Q205.54 0.4 204.24 0.4L204.24 0.4Q202.19 0.4 200.91-0.5 199.64-1.4 199.34-3L199.34-3 199.19-4.35Q197.79-1.9 195.39-0.7 192.99 0.5 190.34 0.5L190.34 0.5Q187.64 0.5 185.36-0.53 183.09-1.55 181.41-3.4 179.74-5.25 178.84-7.75 177.94-10.25 177.94-13.15ZM197.99-9.9L197.99-9.9 197.99-15.4Q197.49-16.75 196.56-17.75 195.64-18.75 194.46-19.35 193.29-19.95 192.09-19.95L192.09-19.95Q190.79-19.95 189.71-19.4 188.64-18.85 187.84-17.88 187.04-16.9 186.61-15.65 186.19-14.4 186.19-13L186.19-13Q186.19-11.55 186.66-10.33 187.14-9.1 187.99-8.18 188.84-7.25 189.99-6.75 191.14-6.25 192.49-6.25L192.49-6.25Q193.34-6.25 194.14-6.53 194.94-6.8 195.66-7.25 196.39-7.7 196.99-8.4 197.59-9.1 197.99-9.9ZM224.63 0.5L224.63 0.5Q221.28 0.5 218.66-0.6 216.03-1.7 214.23-3.6 212.43-5.5 211.51-7.95 210.58-10.4 210.58-13.1L210.58-13.1Q210.58-15.85 211.51-18.3 212.43-20.75 214.23-22.65 216.03-24.55 218.66-25.65 221.28-26.75 224.63-26.75L224.63-26.75Q227.98-26.75 230.58-25.65 233.18-24.55 234.98-22.65 236.78-20.75 237.73-18.3 238.68-15.85 238.68-13.1L238.68-13.1Q238.68-10.4 237.73-7.95 236.78-5.5 234.98-3.6 233.18-1.7 230.58-0.6 227.98 0.5 224.63 0.5ZM218.78-13.1L218.78-13.1Q218.78-11.05 219.56-9.5 220.33-7.95 221.63-7.1 222.93-6.25 224.63-6.25L224.63-6.25Q226.28-6.25 227.61-7.13 228.93-8 229.68-9.55 230.43-11.1 230.43-13.1L230.43-13.1Q230.43-15.15 229.68-16.7 228.93-18.25 227.61-19.1 226.28-19.95 224.63-19.95L224.63-19.95Q222.93-19.95 221.63-19.1 220.33-18.25 219.56-16.7 218.78-15.15 218.78-13.1ZM259.28-26.6L259.28-19.4Q256.38-19.4 254.03-18.48 251.68-17.55 250.63-15.75L250.63-15.75 250.63 0 242.63 0 242.63-26.25 249.98-26.25 249.98-20.95Q251.33-23.6 253.48-25.1 255.63-26.6 257.98-26.65L257.98-26.65Q258.53-26.65 258.81-26.65 259.08-26.65 259.28-26.6L259.28-26.6ZM271.73-13.15L271.73-13.15Q271.73-17 273.23-20.08 274.73-23.15 277.33-24.95 279.93-26.75 283.33-26.75L283.33-26.75Q286.08-26.75 288.33-25.43 290.58-24.1 291.73-21.95L291.73-21.95 291.73-36.5 299.73-36.5 299.73-8.9Q299.73-7.7 300.13-7.23 300.53-6.75 301.43-6.65L301.43-6.65 301.43 0Q299.33 0.4 298.03 0.4L298.03 0.4Q295.98 0.4 294.7-0.5 293.43-1.4 293.13-3L293.13-3 292.98-4.35Q291.58-1.9 289.18-0.7 286.78 0.5 284.13 0.5L284.13 0.5Q281.43 0.5 279.15-0.53 276.88-1.55 275.2-3.4 273.53-5.25 272.63-7.75 271.73-10.25 271.73-13.15ZM291.78-9.9L291.78-9.9 291.78-15.4Q291.28-16.75 290.35-17.75 289.43-18.75 288.25-19.35 287.08-19.95 285.88-19.95L285.88-19.95Q284.58-19.95 283.5-19.4 282.43-18.85 281.63-17.88 280.83-16.9 280.4-15.65 279.98-14.4 279.98-13L279.98-13Q279.98-11.55 280.45-10.33 280.93-9.1 281.78-8.18 282.63-7.25 283.78-6.75 284.93-6.25 286.28-6.25L286.28-6.25Q287.13-6.25 287.93-6.53 288.73-6.8 289.45-7.25 290.18-7.7 290.78-8.4 291.38-9.1 291.78-9.9ZM318.47 0.5L318.47 0.5Q315.12 0.5 312.52-0.58 309.92-1.65 308.1-3.5 306.27-5.35 305.32-7.78 304.37-10.2 304.37-12.85L304.37-12.85Q304.37-16.65 306.05-19.78 307.72-22.9 310.87-24.83 314.02-26.75 318.47-26.75L318.47-26.75Q322.92-26.75 326.05-24.85 329.17-22.95 330.82-19.88 332.47-16.8 332.47-13.2L332.47-13.2Q332.47-12.5 332.4-11.83 332.32-11.15 332.27-10.65L332.27-10.65 312.87-10.65Q313.02-8.9 313.85-7.7 314.67-6.5 315.97-5.88 317.27-5.25 318.72-5.25L318.72-5.25Q320.52-5.25 322.1-6.1 323.67-6.95 324.27-8.4L324.27-8.4 331.07-6.5Q330.07-4.45 328.25-2.88 326.42-1.3 323.95-0.4 321.47 0.5 318.47 0.5ZM312.67-15.55L312.67-15.55 324.07-15.55Q323.87-17.2 323.12-18.43 322.37-19.65 321.12-20.33 319.87-21 318.37-21L318.37-21Q316.82-21 315.6-20.33 314.37-19.65 313.62-18.43 312.87-17.2 312.67-15.55ZM356.62 0L348.42 0 348.42-35.5 364.42-35.5Q366.92-35.5 369.04-34.48 371.17-33.45 372.72-31.73 374.27-30 375.14-27.85 376.02-25.7 376.02-23.5L376.02-23.5Q376.02-21.3 375.32-19.33 374.62-17.35 373.32-15.78 372.02-14.2 370.22-13.2L370.22-13.2 378.02 0 368.97 0 362.17-11.45 356.62-11.45 356.62 0ZM356.62-28.3L356.62-18.6 364.12-18.6Q365.12-18.6 365.89-19.23 366.67-19.85 367.17-20.95 367.67-22.05 367.67-23.5L367.67-23.5Q367.67-24.95 367.09-26.03 366.52-27.1 365.67-27.7 364.82-28.3 363.87-28.3L363.87-28.3 356.62-28.3ZM380.56-9.45L380.56-9.45 380.56-26.25 388.56-26.25 388.56-11.2Q388.56-8.8 389.51-7.53 390.46-6.25 392.21-6.25L392.21-6.25Q393.31-6.25 394.31-6.63 395.31-7 396.26-7.85 397.21-8.7 397.96-10.05L397.96-10.05 397.96-26.25 405.96-26.25 405.96-8.9Q405.96-7.7 406.34-7.23 406.71-6.75 407.67-6.65L407.67-6.65 407.67 0Q406.56 0.2 405.74 0.3 404.92 0.4 404.26 0.4L404.26 0.4Q402.17 0.4 400.92-0.48 399.67-1.35 399.37-2.95L399.37-2.95 399.21-4.55Q397.42-1.95 394.74-0.73 392.06 0.5 388.76 0.5L388.76 0.5Q384.76 0.5 382.67-2.05 380.56-4.6 380.56-9.45ZM427.46-7.75L429.01-1.4Q427.91-0.95 426.59-0.5 425.26-0.05 423.81 0.23 422.36 0.5 420.96 0.5L420.96 0.5Q418.96 0.5 417.29-0.18 415.61-0.85 414.64-2.4 413.66-3.95 413.66-6.5L413.66-6.5 413.66-20.2 410.31-20.2 410.31-26.25 413.66-26.25 413.66-34.6 421.66-34.6 421.66-26.25 427.01-26.25 427.01-20.2 421.66-20.2 421.66-9.25Q421.66-7.95 422.31-7.38 422.96-6.8 423.96-6.8L423.96-6.8Q424.81-6.8 425.79-7.1 426.76-7.4 427.46-7.75L427.46-7.75ZM430.46-7.85L430.46-7.85Q430.46-10.45 431.91-12.4 433.36-14.35 435.91-15.48 438.46-16.6 441.76-16.6L441.76-16.6Q443.36-16.6 444.91-16.32 446.46-16.05 447.61-15.55L447.61-15.55 447.61-16.7Q447.61-18.85 446.31-20 445.01-21.15 442.36-21.15L442.36-21.15Q440.16-21.15 438.24-20.4 436.31-19.65 434.16-18.25L434.16-18.25 431.76-23.35Q434.36-25.05 437.19-25.9 440.01-26.75 443.16-26.75L443.16-26.75Q449.06-26.75 452.34-23.93 455.61-21.1 455.61-15.75L455.61-15.75 455.61-8.9Q455.61-7.7 455.99-7.23 456.36-6.75 457.31-6.65L457.31-6.65 457.31 0Q456.31 0.2 455.44 0.3 454.56 0.4 453.91 0.4L453.91 0.4Q451.66 0.4 450.49-0.5 449.31-1.4 449.01-2.95L449.01-2.95 448.86-4.1Q447.11-1.85 444.69-0.68 442.26 0.5 439.61 0.5L439.61 0.5Q437.01 0.5 434.94-0.6 432.86-1.7 431.66-3.6 430.46-5.5 430.46-7.85ZM446.36-6.85L446.36-6.85Q446.91-7.3 447.26-7.85 447.61-8.4 447.61-8.9L447.61-8.9 447.61-11.25Q446.61-11.65 445.39-11.88 444.16-12.1 443.11-12.1L443.11-12.1Q440.91-12.1 439.46-11.13 438.01-10.15 438.01-8.55L438.01-8.55Q438.01-7.65 438.51-6.9 439.01-6.15 439.89-5.7 440.76-5.25 441.96-5.25L441.96-5.25Q443.16-5.25 444.36-5.7 445.56-6.15 446.36-6.85ZM471.46 0.5L471.46 0.5Q468.11 0.5 464.91-0.6 461.71-1.7 459.51-3.85L459.51-3.85 462.26-8.9Q464.66-7.15 466.93-6.25 469.21-5.35 471.21-5.35L471.21-5.35Q472.76-5.35 473.61-5.85 474.46-6.35 474.46-7.4L474.46-7.4Q474.46-8.15 473.96-8.58 473.46-9 472.43-9.35 471.41-9.7 469.91-10.1L469.91-10.1Q466.91-11.1 464.91-12.05 462.91-13 461.91-14.38 460.91-15.75 460.91-17.95L460.91-17.95Q460.91-20.6 462.23-22.58 463.56-24.55 466.01-25.65 468.46-26.75 471.86-26.75L471.86-26.75Q474.56-26.75 477.13-25.9 479.71-25.05 481.96-23.05L481.96-23.05 478.86-18.05Q476.61-19.6 474.86-20.3 473.11-21 471.46-21L471.46-21Q470.61-21 469.91-20.8 469.21-20.6 468.78-20.13 468.36-19.65 468.36-18.9L468.36-18.9Q468.36-18.15 468.78-17.7 469.21-17.25 470.13-16.93 471.06-16.6 472.46-16.15L472.46-16.15Q475.71-15.2 477.86-14.23 480.01-13.25 481.08-11.83 482.16-10.4 482.16-8.05L482.16-8.05Q482.16-4.05 479.28-1.78 476.41 0.5 471.46 0.5ZM496.4-13.15L496.4-13.15Q496.4-17 497.9-20.08 499.4-23.15 502-24.95 504.6-26.75 508-26.75L508-26.75Q510.75-26.75 513-25.43 515.25-24.1 516.4-21.95L516.4-21.95 516.4-36.5 524.4-36.5 524.4-8.9Q524.4-7.7 524.8-7.23 525.2-6.75 526.1-6.65L526.1-6.65 526.1 0Q524 0.4 522.7 0.4L522.7 0.4Q520.65 0.4 519.38-0.5 518.1-1.4 517.8-3L517.8-3 517.65-4.35Q516.25-1.9 513.85-0.7 511.45 0.5 508.8 0.5L508.8 0.5Q506.1 0.5 503.83-0.53 501.55-1.55 499.88-3.4 498.2-5.25 497.3-7.75 496.4-10.25 496.4-13.15ZM516.45-9.9L516.45-9.9 516.45-15.4Q515.95-16.75 515.03-17.75 514.1-18.75 512.93-19.35 511.75-19.95 510.55-19.95L510.55-19.95Q509.25-19.95 508.18-19.4 507.1-18.85 506.3-17.88 505.5-16.9 505.08-15.65 504.65-14.4 504.65-13L504.65-13Q504.65-11.55 505.13-10.33 505.6-9.1 506.45-8.18 507.3-7.25 508.45-6.75 509.6-6.25 510.95-6.25L510.95-6.25Q511.8-6.25 512.6-6.53 513.4-6.8 514.13-7.25 514.85-7.7 515.45-8.4 516.05-9.1 516.45-9.9ZM543.15 0.5L543.15 0.5Q539.8 0.5 537.2-0.58 534.6-1.65 532.77-3.5 530.95-5.35 530-7.78 529.05-10.2 529.05-12.85L529.05-12.85Q529.05-16.65 530.73-19.78 532.4-22.9 535.55-24.83 538.7-26.75 543.15-26.75L543.15-26.75Q547.6-26.75 550.73-24.85 553.85-22.95 555.5-19.88 557.15-16.8 557.15-13.2L557.15-13.2Q557.15-12.5 557.08-11.83 557-11.15 556.95-10.65L556.95-10.65 537.55-10.65Q537.7-8.9 538.52-7.7 539.35-6.5 540.65-5.88 541.95-5.25 543.4-5.25L543.4-5.25Q545.2-5.25 546.77-6.1 548.35-6.95 548.95-8.4L548.95-8.4 555.75-6.5Q554.75-4.45 552.93-2.88 551.1-1.3 548.63-0.4 546.15 0.5 543.15 0.5ZM537.35-15.55L537.35-15.55 548.75-15.55Q548.55-17.2 547.8-18.43 547.05-19.65 545.8-20.33 544.55-21 543.05-21L543.05-21Q541.5-21 540.27-20.33 539.05-19.65 538.3-18.43 537.55-17.2 537.35-15.55ZM568.29 0L580.54-35.5 589.39-35.5 601.59 0 593.19 0 590.44-7.95 579.39-7.95 576.69 0 568.29 0ZM580.69-13.6L589.09-13.6 584.94-27.25 580.69-13.6ZM621.04 0.5L621.04 0.5Q618.09 0.5 615.89-0.78 613.69-2.05 612.44-4.25L612.44-4.25 612.44 10.65 604.44 10.65 604.44-26.25 611.39-26.25 611.39-22Q612.84-24.25 615.04-25.5 617.24-26.75 620.19-26.75L620.19-26.75Q622.84-26.75 625.07-25.7 627.29-24.65 628.94-22.8 630.59-20.95 631.49-18.5 632.39-16.05 632.39-13.2L632.39-13.2Q632.39-9.3 630.94-6.2 629.49-3.1 626.92-1.3 624.34 0.5 621.04 0.5ZM618.34-6.25L618.34-6.25Q619.64-6.25 620.72-6.83 621.79-7.4 622.59-8.35 623.39-9.3 623.82-10.58 624.24-11.85 624.24-13.25L624.24-13.25Q624.24-14.7 623.77-15.9 623.29-17.1 622.44-18.03 621.59-18.95 620.44-19.45 619.29-19.95 617.94-19.95L617.94-19.95Q617.14-19.95 616.32-19.7 615.49-19.45 614.77-18.98 614.04-18.5 613.44-17.85 612.84-17.2 612.44-16.35L612.44-16.35 612.44-10.95Q612.99-9.6 613.89-8.55 614.79-7.5 615.94-6.88 617.09-6.25 618.34-6.25ZM653.09-26.6L653.09-19.4Q650.19-19.4 647.84-18.48 645.49-17.55 644.44-15.75L644.44-15.75 644.44 0 636.44 0 636.44-26.25 643.79-26.25 643.79-20.95Q645.14-23.6 647.29-25.1 649.44-26.6 651.79-26.65L651.79-26.65Q652.34-26.65 652.61-26.65 652.89-26.65 653.09-26.6L653.09-26.6ZM668.79 0.5L668.79 0.5Q665.44 0.5 662.84-0.58 660.24-1.65 658.41-3.5 656.59-5.35 655.64-7.78 654.69-10.2 654.69-12.85L654.69-12.85Q654.69-16.65 656.36-19.78 658.04-22.9 661.19-24.83 664.34-26.75 668.79-26.75L668.79-26.75Q673.24-26.75 676.36-24.85 679.49-22.95 681.14-19.88 682.79-16.8 682.79-13.2L682.79-13.2Q682.79-12.5 682.71-11.83 682.64-11.15 682.59-10.65L682.59-10.65 663.19-10.65Q663.34-8.9 664.16-7.7 664.99-6.5 666.29-5.88 667.59-5.25 669.04-5.25L669.04-5.25Q670.84-5.25 672.41-6.1 673.99-6.95 674.59-8.4L674.59-8.4 681.39-6.5Q680.39-4.45 678.56-2.88 676.74-1.3 674.26-0.4 671.79 0.5 668.79 0.5ZM662.99-15.55L662.99-15.55 674.39-15.55Q674.19-17.2 673.44-18.43 672.69-19.65 671.44-20.33 670.19-21 668.69-21L668.69-21Q667.14-21 665.91-20.33 664.69-19.65 663.94-18.43 663.19-17.2 662.99-15.55ZM711.73-16.8L711.73 0 703.73 0 703.73-14.75Q703.73-17.35 702.76-18.53 701.78-19.7 700.18-19.7L700.18-19.7Q699.08-19.7 697.93-19.1 696.78-18.5 695.86-17.45 694.93-16.4 694.43-15.05L694.43-15.05 694.43 0 686.43 0 686.43-26.25 693.63-26.25 693.63-21.85Q694.63-23.4 696.13-24.5 697.63-25.6 699.58-26.18 701.53-26.75 703.83-26.75L703.83-26.75Q706.38-26.75 707.96-25.83 709.53-24.9 710.36-23.4 711.18-21.9 711.46-20.18 711.73-18.45 711.73-16.8L711.73-16.8ZM715.53-13.15L715.53-13.15Q715.53-17 717.03-20.08 718.53-23.15 721.13-24.95 723.73-26.75 727.13-26.75L727.13-26.75Q729.88-26.75 732.13-25.43 734.38-24.1 735.53-21.95L735.53-21.95 735.53-36.5 743.53-36.5 743.53-8.9Q743.53-7.7 743.93-7.23 744.33-6.75 745.23-6.65L745.23-6.65 745.23 0Q743.13 0.4 741.83 0.4L741.83 0.4Q739.78 0.4 738.51-0.5 737.23-1.4 736.93-3L736.93-3 736.78-4.35Q735.38-1.9 732.98-0.7 730.58 0.5 727.93 0.5L727.93 0.5Q725.23 0.5 722.96-0.53 720.68-1.55 719.01-3.4 717.33-5.25 716.43-7.75 715.53-10.25 715.53-13.15ZM735.58-9.9L735.58-9.9 735.58-15.4Q735.08-16.75 734.16-17.75 733.23-18.75 732.06-19.35 730.88-19.95 729.68-19.95L729.68-19.95Q728.38-19.95 727.31-19.4 726.23-18.85 725.43-17.88 724.63-16.9 724.21-15.65 723.78-14.4 723.78-13L723.78-13Q723.78-11.55 724.26-10.33 724.73-9.1 725.58-8.18 726.43-7.25 727.58-6.75 728.73-6.25 730.08-6.25L730.08-6.25Q730.93-6.25 731.73-6.53 732.53-6.8 733.26-7.25 733.98-7.7 734.58-8.4 735.18-9.1 735.58-9.9ZM757.73 0L749.73 0 749.73-26.25 757.73-26.25 757.73 0ZM757.73-29.25L749.73-29.25 749.73-36.5 757.73-36.5 757.73-29.25ZM761.68 0L761.68-4.8 775.03-20.7 762.38-20.7 762.38-26.25 783.43-26.25 783.43-21.45 770.23-5.55 783.78-5.55 783.78 0 761.68 0ZM786.27-7.85L786.27-7.85Q786.27-10.45 787.72-12.4 789.17-14.35 791.72-15.48 794.27-16.6 797.57-16.6L797.57-16.6Q799.17-16.6 800.72-16.32 802.27-16.05 803.42-15.55L803.42-15.55 803.42-16.7Q803.42-18.85 802.12-20 800.82-21.15 798.17-21.15L798.17-21.15Q795.97-21.15 794.05-20.4 792.12-19.65 789.97-18.25L789.97-18.25 787.57-23.35Q790.17-25.05 793-25.9 795.82-26.75 798.97-26.75L798.97-26.75Q804.87-26.75 808.15-23.93 811.42-21.1 811.42-15.75L811.42-15.75 811.42-8.9Q811.42-7.7 811.8-7.23 812.17-6.75 813.12-6.65L813.12-6.65 813.12 0Q812.12 0.2 811.25 0.3 810.37 0.4 809.72 0.4L809.72 0.4Q807.47 0.4 806.3-0.5 805.12-1.4 804.82-2.95L804.82-2.95 804.67-4.1Q802.92-1.85 800.5-0.68 798.07 0.5 795.42 0.5L795.42 0.5Q792.82 0.5 790.75-0.6 788.67-1.7 787.47-3.6 786.27-5.5 786.27-7.85ZM802.17-6.85L802.17-6.85Q802.72-7.3 803.07-7.85 803.42-8.4 803.42-8.9L803.42-8.9 803.42-11.25Q802.42-11.65 801.2-11.88 799.97-12.1 798.92-12.1L798.92-12.1Q796.72-12.1 795.27-11.13 793.82-10.15 793.82-8.55L793.82-8.55Q793.82-7.65 794.32-6.9 794.82-6.15 795.7-5.7 796.57-5.25 797.77-5.25L797.77-5.25Q798.97-5.25 800.17-5.7 801.37-6.15 802.17-6.85ZM815.82 10.1L815.82 10.1Q813.87 10.1 812.05 9.47 810.22 8.85 808.77 7.6L808.77 7.6 812.12 2.15Q812.62 2.7 813.35 2.95 814.07 3.2 814.82 3.2L814.82 3.2Q815.57 3.2 816.17 2.88 816.77 2.55 817.12 1.9 817.47 1.25 817.47 0.45L817.47 0.45 817.47-26.25 825.47-26.25 825.47-0.15Q825.47 2.85 824.2 5.18 822.92 7.5 820.75 8.8 818.57 10.1 815.82 10.1ZM825.47-29.25L817.47-29.25 817.47-36.5 825.47-36.5 825.47-29.25ZM843.47 0.5L843.47 0.5Q840.12 0.5 837.52-0.58 834.92-1.65 833.09-3.5 831.27-5.35 830.32-7.78 829.37-10.2 829.37-12.85L829.37-12.85Q829.37-16.65 831.04-19.78 832.72-22.9 835.87-24.83 839.02-26.75 843.47-26.75L843.47-26.75Q847.92-26.75 851.04-24.85 854.17-22.95 855.82-19.88 857.47-16.8 857.47-13.2L857.47-13.2Q857.47-12.5 857.39-11.83 857.32-11.15 857.27-10.65L857.27-10.65 837.87-10.65Q838.02-8.9 838.84-7.7 839.67-6.5 840.97-5.88 842.27-5.25 843.72-5.25L843.72-5.25Q845.52-5.25 847.09-6.1 848.67-6.95 849.27-8.4L849.27-8.4 856.07-6.5Q855.07-4.45 853.24-2.88 851.42-1.3 848.94-0.4 846.47 0.5 843.47 0.5ZM837.67-15.55L837.67-15.55 849.07-15.55Q848.87-17.2 848.12-18.43 847.37-19.65 846.12-20.33 844.87-21 843.37-21L843.37-21Q841.82-21 840.59-20.33 839.37-19.65 838.62-18.43 837.87-17.2 837.67-15.55Z"
                                                                  opacity="1" transform="matrix(1,0,0,1,0,0)"
                                                                  fill="#202020" class="wordmark-text-0"
                                                                  data-fill-palette-color="primary" id="text-0"></path>
                                                        </svg>
                                                    </g>
                                                </svg>
                                            </g>
                                            <g transform="matrix(1,0,0,1,0,26.924364368823213)">
                                                <svg viewBox="0 0 395.52 17.425701570986387" height="17.425701570986387"
                                                     width="395.52">
                                                    <g transform="matrix(1,0,0,1,0,0)">
                                                        <svg width="395.52" viewBox="4 -36.5 1070.19 47.15"
                                                             height="17.425701570986387" data-palette-color="#202020">
                                                            <path d="M9.6-4.95L28.35-4.95 28.35 0 4 0 4-35.5 27.9-35.5 27.9-30.55 9.6-30.55 9.6-20.45 25.45-20.45 25.45-15.8 9.6-15.8 9.6-4.95ZM35.39-5.55L35.39-36.5 40.89-36.5 40.89-7.55Q40.89-5.55 41.49-5 42.09-4.45 42.99-4.45L42.99-4.45Q43.99-4.45 44.86-4.65 45.74-4.85 46.39-5.15L46.39-5.15 47.19-0.8Q45.99-0.3 44.34 0.05 42.69 0.4 41.39 0.4L41.39 0.4Q38.59 0.4 36.99-1.18 35.39-2.75 35.39-5.55L35.39-5.55ZM76.97 0.5L76.97 0.5Q73.92 0.5 71.44-0.58 68.97-1.65 67.17-3.55 65.37-5.45 64.39-7.9 63.42-10.35 63.42-13.1L63.42-13.1Q63.42-16.8 65.09-19.85 66.77-22.9 69.79-24.75 72.82-26.6 76.97-26.6L76.97-26.6Q80.97-26.6 83.94-24.83 86.92-23.05 88.32-20.1L88.32-20.1 82.97-18.4Q82.07-20.05 80.44-20.98 78.82-21.9 76.87-21.9L76.87-21.9Q74.67-21.9 72.89-20.78 71.12-19.65 70.09-17.68 69.07-15.7 69.07-13.1L69.07-13.1Q69.07-10.6 70.12-8.58 71.17-6.55 72.94-5.38 74.72-4.2 76.92-4.2L76.92-4.2Q78.27-4.2 79.54-4.67 80.82-5.15 81.77-5.98 82.72-6.8 83.12-7.8L83.12-7.8 88.52-6.2Q87.67-4.25 85.99-2.75 84.32-1.25 82.04-0.38 79.77 0.5 76.97 0.5ZM93.05-7.65L93.05-7.65Q93.05-10.15 94.48-12.03 95.9-13.9 98.4-14.93 100.9-15.95 104.2-15.95L104.2-15.95Q105.95-15.95 107.78-15.7 109.6-15.45 111-14.9L111-14.9 111-16.55Q111-19.3 109.35-20.85 107.7-22.4 104.6-22.4L104.6-22.4Q102.4-22.4 100.45-21.63 98.5-20.85 96.3-19.45L96.3-19.45 94.45-23.15Q97.05-24.9 99.68-25.75 102.3-26.6 105.2-26.6L105.2-26.6Q110.45-26.6 113.48-23.83 116.5-21.05 116.5-15.95L116.5-15.95 116.5-6.2Q116.5-5.25 116.83-4.85 117.15-4.45 117.95-4.4L117.95-4.4 117.95 0Q117.2 0.15 116.6 0.2 116 0.25 115.6 0.25L115.6 0.25Q113.85 0.25 112.95-0.6 112.05-1.45 111.9-2.6L111.9-2.6 111.75-4.1Q110.05-1.9 107.4-0.7 104.75 0.5 102.05 0.5L102.05 0.5Q99.45 0.5 97.4-0.58 95.35-1.65 94.2-3.5 93.05-5.35 93.05-7.65ZM109.7-6.05L109.7-6.05Q110.3-6.7 110.65-7.35 111-8 111-8.5L111-8.5 111-11.5Q109.6-12.05 108.05-12.33 106.5-12.6 105-12.6L105-12.6Q102-12.6 100.13-11.4 98.25-10.2 98.25-8.1L98.25-8.1Q98.25-6.95 98.88-5.9 99.5-4.85 100.68-4.2 101.85-3.55 103.6-3.55L103.6-3.55Q105.4-3.55 107.05-4.25 108.7-4.95 109.7-6.05ZM165.04-15.95L165.04 0 159.54 0 159.54-14.65Q159.54-18.3 158.34-20 157.14-21.7 154.84-21.7L154.84-21.7Q152.54-21.7 150.57-19.98 148.59-18.25 147.79-15.5L147.79-15.5 147.79 0 142.29 0 142.29-14.65Q142.29-18.3 141.09-20 139.89-21.7 137.64-21.7L137.64-21.7Q135.34-21.7 133.37-20 131.39-18.3 130.54-15.55L130.54-15.55 130.54 0 125.04 0 125.04-26.15 130.04-26.15 130.04-20.9Q131.59-23.65 134.12-25.13 136.64-26.6 139.89-26.6L139.89-26.6Q143.14-26.6 145.02-24.9 146.89-23.2 147.34-20.65L147.34-20.65Q149.04-23.55 151.52-25.08 153.99-26.6 157.19-26.6L157.19-26.6Q159.49-26.6 161.04-25.75 162.59-24.9 163.44-23.43 164.29-21.95 164.67-20.03 165.04-18.1 165.04-15.95L165.04-15.95ZM178.78 0L173.28 0 173.28-26.15 178.78-26.15 178.78 0ZM178.78-30.45L173.28-30.45 173.28-36.5 178.78-36.5 178.78-30.45ZM210.72-15.95L210.72 0 205.22 0 205.22-14.65Q205.22-18.3 204.04-20 202.87-21.7 200.57-21.7L200.57-21.7Q198.97-21.7 197.39-20.9 195.82-20.1 194.57-18.73 193.32-17.35 192.77-15.55L192.77-15.55 192.77 0 187.27 0 187.27-26.15 192.27-26.15 192.27-20.9Q193.27-22.65 194.89-23.93 196.52-25.2 198.57-25.9 200.62-26.6 202.92-26.6L202.92-26.6Q205.27-26.6 206.79-25.75 208.32-24.9 209.19-23.43 210.07-21.95 210.39-20.03 210.72-18.1 210.72-15.95L210.72-15.95ZM230.76 0.5L230.76 0.5Q227.66 0.5 225.21-0.58 222.76-1.65 220.98-3.55 219.21-5.45 218.26-7.88 217.31-10.3 217.31-13.05L217.31-13.05Q217.31-15.8 218.26-18.25 219.21-20.7 220.98-22.58 222.76-24.45 225.23-25.53 227.71-26.6 230.76-26.6L230.76-26.6Q233.81-26.6 236.28-25.53 238.76-24.45 240.53-22.58 242.31-20.7 243.26-18.25 244.21-15.8 244.21-13.05L244.21-13.05Q244.21-10.3 243.26-7.88 242.31-5.45 240.53-3.55 238.76-1.65 236.28-0.58 233.81 0.5 230.76 0.5ZM222.96-13L222.96-13Q222.96-10.5 224.01-8.5 225.06-6.5 226.81-5.35 228.56-4.2 230.76-4.2L230.76-4.2Q232.91-4.2 234.68-5.38 236.46-6.55 237.51-8.58 238.56-10.6 238.56-13.05L238.56-13.05Q238.56-15.55 237.51-17.55 236.46-19.55 234.68-20.73 232.91-21.9 230.76-21.9L230.76-21.9Q228.56-21.9 226.81-20.7 225.06-19.5 224.01-17.53 222.96-15.55 222.96-13ZM280.08 0.5L280.08 0.5Q276.93 0.5 274.53-1 272.13-2.5 270.73-4.9L270.73-4.9 270.73 10.65 265.23 10.65 265.23-26.15 270.08-26.15 270.08-21.45Q271.58-23.8 273.98-25.2 276.38-26.6 279.33-26.6L279.33-26.6Q282.03-26.6 284.28-25.53 286.53-24.45 288.18-22.55 289.83-20.65 290.76-18.23 291.68-15.8 291.68-13.1L291.68-13.1Q291.68-9.35 290.21-6.25 288.73-3.15 286.11-1.33 283.48 0.5 280.08 0.5ZM278.28-4.2L278.28-4.2Q280.03-4.2 281.46-4.95 282.88-5.7 283.91-6.95 284.93-8.2 285.48-9.8 286.03-11.4 286.03-13.1L286.03-13.1Q286.03-14.9 285.43-16.5 284.83-18.1 283.71-19.3 282.58-20.5 281.11-21.2 279.63-21.9 277.88-21.9L277.88-21.9Q276.83-21.9 275.68-21.5 274.53-21.1 273.53-20.4 272.53-19.7 271.78-18.75 271.03-17.8 270.73-16.75L270.73-16.75 270.73-9.9Q271.43-8.3 272.58-7.03 273.73-5.75 275.23-4.98 276.73-4.2 278.28-4.2ZM296.62-7.65L296.62-7.65Q296.62-10.15 298.05-12.03 299.47-13.9 301.97-14.93 304.47-15.95 307.77-15.95L307.77-15.95Q309.52-15.95 311.35-15.7 313.17-15.45 314.57-14.9L314.57-14.9 314.57-16.55Q314.57-19.3 312.92-20.85 311.27-22.4 308.17-22.4L308.17-22.4Q305.97-22.4 304.02-21.63 302.07-20.85 299.87-19.45L299.87-19.45 298.02-23.15Q300.62-24.9 303.25-25.75 305.87-26.6 308.77-26.6L308.77-26.6Q314.02-26.6 317.05-23.83 320.07-21.05 320.07-15.95L320.07-15.95 320.07-6.2Q320.07-5.25 320.4-4.85 320.72-4.45 321.52-4.4L321.52-4.4 321.52 0Q320.77 0.15 320.17 0.2 319.57 0.25 319.17 0.25L319.17 0.25Q317.42 0.25 316.52-0.6 315.62-1.45 315.47-2.6L315.47-2.6 315.32-4.1Q313.62-1.9 310.97-0.7 308.32 0.5 305.62 0.5L305.62 0.5Q303.02 0.5 300.97-0.58 298.92-1.65 297.77-3.5 296.62-5.35 296.62-7.65ZM313.27-6.05L313.27-6.05Q313.87-6.7 314.22-7.35 314.57-8 314.57-8.5L314.57-8.5 314.57-11.5Q313.17-12.05 311.62-12.33 310.07-12.6 308.57-12.6L308.57-12.6Q305.57-12.6 303.7-11.4 301.82-10.2 301.82-8.1L301.82-8.1Q301.82-6.95 302.45-5.9 303.07-4.85 304.25-4.2 305.42-3.55 307.17-3.55L307.17-3.55Q308.97-3.55 310.62-4.25 312.27-4.95 313.27-6.05ZM343.31-26.35L343.31-21.4Q340.11-21.35 337.64-19.95 335.16-18.55 334.11-16L334.11-16 334.11 0 328.61 0 328.61-26.15 333.71-26.15 333.71-20.3Q335.06-23 337.26-24.63 339.46-26.25 341.91-26.4L341.91-26.4Q342.41-26.4 342.74-26.4 343.06-26.4 343.31-26.35L343.31-26.35ZM347.25-7.65L347.25-7.65Q347.25-10.15 348.67-12.03 350.1-13.9 352.6-14.93 355.1-15.95 358.4-15.95L358.4-15.95Q360.15-15.95 361.97-15.7 363.8-15.45 365.2-14.9L365.2-14.9 365.2-16.55Q365.2-19.3 363.55-20.85 361.9-22.4 358.8-22.4L358.8-22.4Q356.6-22.4 354.65-21.63 352.7-20.85 350.5-19.45L350.5-19.45 348.65-23.15Q351.25-24.9 353.87-25.75 356.5-26.6 359.4-26.6L359.4-26.6Q364.65-26.6 367.67-23.83 370.7-21.05 370.7-15.95L370.7-15.95 370.7-6.2Q370.7-5.25 371.02-4.85 371.35-4.45 372.15-4.4L372.15-4.4 372.15 0Q371.4 0.15 370.8 0.2 370.2 0.25 369.8 0.25L369.8 0.25Q368.05 0.25 367.15-0.6 366.25-1.45 366.1-2.6L366.1-2.6 365.95-4.1Q364.25-1.9 361.6-0.7 358.95 0.5 356.25 0.5L356.25 0.5Q353.65 0.5 351.6-0.58 349.55-1.65 348.4-3.5 347.25-5.35 347.25-7.65ZM363.9-6.05L363.9-6.05Q364.5-6.7 364.85-7.35 365.2-8 365.2-8.5L365.2-8.5 365.2-11.5Q363.8-12.05 362.25-12.33 360.7-12.6 359.2-12.6L359.2-12.6Q356.2-12.6 354.32-11.4 352.45-10.2 352.45-8.1L352.45-8.1Q352.45-6.95 353.07-5.9 353.7-4.85 354.87-4.2 356.05-3.55 357.8-3.55L357.8-3.55Q359.6-3.55 361.25-4.25 362.9-4.95 363.9-6.05ZM391.58-7.65L391.58-7.65Q391.58-10.15 393-12.03 394.43-13.9 396.93-14.93 399.43-15.95 402.73-15.95L402.73-15.95Q404.48-15.95 406.3-15.7 408.13-15.45 409.53-14.9L409.53-14.9 409.53-16.55Q409.53-19.3 407.88-20.85 406.23-22.4 403.13-22.4L403.13-22.4Q400.93-22.4 398.98-21.63 397.03-20.85 394.83-19.45L394.83-19.45 392.98-23.15Q395.58-24.9 398.2-25.75 400.83-26.6 403.73-26.6L403.73-26.6Q408.98-26.6 412-23.83 415.03-21.05 415.03-15.95L415.03-15.95 415.03-6.2Q415.03-5.25 415.35-4.85 415.68-4.45 416.48-4.4L416.48-4.4 416.48 0Q415.73 0.15 415.13 0.2 414.53 0.25 414.13 0.25L414.13 0.25Q412.38 0.25 411.48-0.6 410.58-1.45 410.43-2.6L410.43-2.6 410.28-4.1Q408.58-1.9 405.93-0.7 403.28 0.5 400.58 0.5L400.58 0.5Q397.98 0.5 395.93-0.58 393.88-1.65 392.73-3.5 391.58-5.35 391.58-7.65ZM408.23-6.05L408.23-6.05Q408.83-6.7 409.18-7.35 409.53-8 409.53-8.5L409.53-8.5 409.53-11.5Q408.13-12.05 406.58-12.33 405.03-12.6 403.53-12.6L403.53-12.6Q400.53-12.6 398.65-11.4 396.78-10.2 396.78-8.1L396.78-8.1Q396.78-6.95 397.4-5.9 398.03-4.85 399.2-4.2 400.38-3.55 402.13-3.55L402.13-3.55Q403.93-3.55 405.58-4.25 407.23-4.95 408.23-6.05ZM438.42 0.5L438.42 0.5Q435.27 0.5 432.87-1 430.47-2.5 429.07-4.9L429.07-4.9 429.07 10.65 423.57 10.65 423.57-26.15 428.42-26.15 428.42-21.45Q429.92-23.8 432.32-25.2 434.72-26.6 437.67-26.6L437.67-26.6Q440.37-26.6 442.62-25.53 444.87-24.45 446.52-22.55 448.17-20.65 449.09-18.23 450.02-15.8 450.02-13.1L450.02-13.1Q450.02-9.35 448.54-6.25 447.07-3.15 444.44-1.33 441.82 0.5 438.42 0.5ZM436.62-4.2L436.62-4.2Q438.37-4.2 439.79-4.95 441.22-5.7 442.24-6.95 443.27-8.2 443.82-9.8 444.37-11.4 444.37-13.1L444.37-13.1Q444.37-14.9 443.77-16.5 443.17-18.1 442.04-19.3 440.92-20.5 439.44-21.2 437.97-21.9 436.22-21.9L436.22-21.9Q435.17-21.9 434.02-21.5 432.87-21.1 431.87-20.4 430.87-19.7 430.12-18.75 429.37-17.8 429.07-16.75L429.07-16.75 429.07-9.9Q429.77-8.3 430.92-7.03 432.07-5.75 433.57-4.98 435.07-4.2 436.62-4.2ZM471.55-26.35L471.55-21.4Q468.35-21.35 465.88-19.95 463.4-18.55 462.35-16L462.35-16 462.35 0 456.85 0 456.85-26.15 461.95-26.15 461.95-20.3Q463.3-23 465.5-24.63 467.7-26.25 470.15-26.4L470.15-26.4Q470.65-26.4 470.98-26.4 471.3-26.4 471.55-26.35L471.55-26.35ZM488.84 0.5L488.84 0.5Q485.79 0.5 483.32-0.58 480.84-1.65 479.04-3.53 477.24-5.4 476.27-7.83 475.29-10.25 475.29-13L475.29-13Q475.29-16.7 476.99-19.78 478.69-22.85 481.74-24.73 484.79-26.6 488.89-26.6L488.89-26.6Q492.99-26.6 495.97-24.73 498.94-22.85 500.59-19.8 502.24-16.75 502.24-13.25L502.24-13.25Q502.24-12.65 502.19-12.13 502.14-11.6 502.09-11.25L502.09-11.25 481.14-11.25Q481.29-8.95 482.42-7.23 483.54-5.5 485.29-4.53 487.04-3.55 489.04-3.55L489.04-3.55Q491.24-3.55 493.22-4.65 495.19-5.75 495.89-7.55L495.89-7.55 500.59-6.2Q499.74-4.3 498.02-2.78 496.29-1.25 493.94-0.38 491.59 0.5 488.84 0.5ZM480.99-14.9L480.99-14.9 496.79-14.9Q496.64-17.15 495.52-18.88 494.39-20.6 492.67-21.58 490.94-22.55 488.84-22.55L488.84-22.55Q486.79-22.55 485.07-21.58 483.34-20.6 482.24-18.88 481.14-17.15 480.99-14.9ZM532.08-15.95L532.08 0 526.58 0 526.58-14.65Q526.58-18.3 525.41-20 524.23-21.7 521.93-21.7L521.93-21.7Q520.33-21.7 518.76-20.9 517.18-20.1 515.93-18.73 514.68-17.35 514.13-15.55L514.13-15.55 514.13 0 508.63 0 508.63-26.15 513.63-26.15 513.63-20.9Q514.63-22.65 516.26-23.93 517.88-25.2 519.93-25.9 521.98-26.6 524.28-26.6L524.28-26.6Q526.63-26.6 528.16-25.75 529.68-24.9 530.56-23.43 531.43-21.95 531.76-20.03 532.08-18.1 532.08-15.95L532.08-15.95ZM538.72-13.05L538.72-13.05Q538.72-16.8 540.24-19.88 541.77-22.95 544.42-24.78 547.07-26.6 550.52-26.6L550.52-26.6Q553.52-26.6 555.94-25.05 558.37-23.5 559.72-21.2L559.72-21.2 559.72-36.5 565.22-36.5 565.22-6.2Q565.22-5.25 565.57-4.85 565.92-4.45 566.72-4.4L566.72-4.4 566.72 0Q565.17 0.25 564.32 0.25L564.32 0.25Q562.77 0.25 561.69-0.65 560.62-1.55 560.57-2.8L560.57-2.8 560.52-4.75Q559.02-2.25 556.47-0.88 553.92 0.5 551.17 0.5L551.17 0.5Q548.47 0.5 546.19-0.55 543.92-1.6 542.24-3.5 540.57-5.4 539.64-7.85 538.72-10.3 538.72-13.05ZM559.72-9.4L559.72-9.4 559.72-16.25Q559.17-17.85 557.94-19.13 556.72-20.4 555.19-21.15 553.67-21.9 552.17-21.9L552.17-21.9Q550.42-21.9 548.99-21.15 547.57-20.4 546.54-19.15 545.52-17.9 544.97-16.3 544.42-14.7 544.42-12.95L544.42-12.95Q544.42-11.15 545.02-9.58 545.62-8 546.74-6.78 547.87-5.55 549.34-4.88 550.82-4.2 552.57-4.2L552.57-4.2Q553.67-4.2 554.79-4.6 555.92-5 556.94-5.7 557.97-6.4 558.69-7.35 559.42-8.3 559.72-9.4ZM585.96 0.5L585.96 0.5Q582.91 0.5 580.43-0.58 577.96-1.65 576.16-3.53 574.36-5.4 573.38-7.83 572.41-10.25 572.41-13L572.41-13Q572.41-16.7 574.11-19.78 575.81-22.85 578.86-24.73 581.91-26.6 586.01-26.6L586.01-26.6Q590.11-26.6 593.08-24.73 596.06-22.85 597.71-19.8 599.36-16.75 599.36-13.25L599.36-13.25Q599.36-12.65 599.31-12.13 599.26-11.6 599.21-11.25L599.21-11.25 578.26-11.25Q578.41-8.95 579.53-7.23 580.66-5.5 582.41-4.53 584.16-3.55 586.16-3.55L586.16-3.55Q588.36-3.55 590.33-4.65 592.31-5.75 593.01-7.55L593.01-7.55 597.71-6.2Q596.86-4.3 595.13-2.78 593.41-1.25 591.06-0.38 588.71 0.5 585.96 0.5ZM578.11-14.9L578.11-14.9 593.91-14.9Q593.76-17.15 592.63-18.88 591.51-20.6 589.78-21.58 588.06-22.55 585.96-22.55L585.96-22.55Q583.91-22.55 582.18-21.58 580.46-20.6 579.36-18.88 578.26-17.15 578.11-14.9ZM620.45-26.35L620.45-21.4Q617.25-21.35 614.77-19.95 612.3-18.55 611.25-16L611.25-16 611.25 0 605.75 0 605.75-26.15 610.85-26.15 610.85-20.3Q612.2-23 614.4-24.63 616.6-26.25 619.05-26.4L619.05-26.4Q619.55-26.4 619.87-26.4 620.2-26.4 620.45-26.35L620.45-26.35ZM624.13 4.85L621.53 4.85 622.73-0.3 620.93-0.3 620.93-6.4 625.88-6.4 625.88-0.3 624.13 4.85ZM653.86 0L648.36 0 648.36-26.15 653.86-26.15 653.86 0ZM653.86-30.45L648.36-30.45 648.36-36.5 653.86-36.5 653.86-30.45ZM702.35-15.95L702.35 0 696.85 0 696.85-14.65Q696.85-18.3 695.65-20 694.45-21.7 692.15-21.7L692.15-21.7Q689.85-21.7 687.87-19.98 685.9-18.25 685.1-15.5L685.1-15.5 685.1 0 679.6 0 679.6-14.65Q679.6-18.3 678.4-20 677.2-21.7 674.95-21.7L674.95-21.7Q672.65-21.7 670.67-20 668.7-18.3 667.85-15.55L667.85-15.55 667.85 0 662.35 0 662.35-26.15 667.35-26.15 667.35-20.9Q668.9-23.65 671.42-25.13 673.95-26.6 677.2-26.6L677.2-26.6Q680.45-26.6 682.32-24.9 684.2-23.2 684.65-20.65L684.65-20.65Q686.35-23.55 688.82-25.08 691.3-26.6 694.5-26.6L694.5-26.6Q696.8-26.6 698.35-25.75 699.9-24.9 700.75-23.43 701.6-21.95 701.97-20.03 702.35-18.1 702.35-15.95L702.35-15.95ZM725.44 0.5L725.44 0.5Q722.29 0.5 719.89-1 717.49-2.5 716.09-4.9L716.09-4.9 716.09 10.65 710.59 10.65 710.59-26.15 715.44-26.15 715.44-21.45Q716.94-23.8 719.34-25.2 721.74-26.6 724.69-26.6L724.69-26.6Q727.39-26.6 729.64-25.53 731.89-24.45 733.54-22.55 735.19-20.65 736.11-18.23 737.04-15.8 737.04-13.1L737.04-13.1Q737.04-9.35 735.56-6.25 734.09-3.15 731.46-1.33 728.84 0.5 725.44 0.5ZM723.64-4.2L723.64-4.2Q725.39-4.2 726.81-4.95 728.24-5.7 729.26-6.95 730.29-8.2 730.84-9.8 731.39-11.4 731.39-13.1L731.39-13.1Q731.39-14.9 730.79-16.5 730.19-18.1 729.06-19.3 727.94-20.5 726.46-21.2 724.99-21.9 723.24-21.9L723.24-21.9Q722.19-21.9 721.04-21.5 719.89-21.1 718.89-20.4 717.89-19.7 717.14-18.75 716.39-17.8 716.09-16.75L716.09-16.75 716.09-9.9Q716.79-8.3 717.94-7.03 719.09-5.75 720.59-4.98 722.09-4.2 723.64-4.2ZM743.63-10.15L743.63-10.15 743.63-26.15 749.13-26.15 749.13-11.25Q749.13-7.75 750.4-5.98 751.68-4.2 754.13-4.2L754.13-4.2Q755.68-4.2 757.15-4.85 758.63-5.5 759.85-6.78 761.08-8.05 761.83-9.85L761.83-9.85 761.83-26.15 767.33-26.15 767.33-6.2Q767.33-5.25 767.68-4.85 768.03-4.45 768.83-4.4L768.83-4.4 768.83 0Q767.98 0.15 767.43 0.2 766.88 0.25 766.38 0.25L766.38 0.25Q764.88 0.25 763.88-0.58 762.88-1.4 762.73-2.7L762.73-2.7 762.63-5.3Q760.88-2.45 758.08-0.98 755.28 0.5 751.93 0.5L751.93 0.5Q747.83 0.5 745.73-2.2 743.63-4.9 743.63-10.15ZM776.26-5.55L776.26-36.5 781.76-36.5 781.76-7.55Q781.76-5.55 782.36-5 782.96-4.45 783.86-4.45L783.86-4.45Q784.86-4.45 785.74-4.65 786.61-4.85 787.26-5.15L787.26-5.15 788.06-0.8Q786.86-0.3 785.21 0.05 783.56 0.4 782.26 0.4L782.26 0.4Q779.46 0.4 777.86-1.18 776.26-2.75 776.26-5.55L776.26-5.55ZM802.45 0.5L802.45 0.5Q799.15 0.5 796.2-0.58 793.25-1.65 791.15-3.8L791.15-3.8 793.2-7.5Q795.45-5.5 797.73-4.6 800-3.7 802.25-3.7L802.25-3.7Q804.55-3.7 806-4.58 807.45-5.45 807.45-7.15L807.45-7.15Q807.45-8.4 806.7-9 805.95-9.6 804.53-10.05 803.1-10.5 801.1-11.05L801.1-11.05Q798.3-11.9 796.4-12.83 794.5-13.75 793.55-15.1 792.6-16.45 792.6-18.55L792.6-18.55Q792.6-21.1 793.9-22.9 795.2-24.7 797.53-25.65 799.85-26.6 802.9-26.6L802.9-26.6Q805.75-26.6 808.18-25.73 810.6-24.85 812.45-23L812.45-23 810.1-19.35Q808.35-20.95 806.53-21.7 804.7-22.45 802.6-22.45L802.6-22.45Q801.4-22.45 800.3-22.18 799.2-21.9 798.48-21.18 797.75-20.45 797.75-19.15L797.75-19.15Q797.75-18.1 798.35-17.45 798.95-16.8 800.15-16.35 801.35-15.9 803.1-15.35L803.1-15.35Q806.15-14.45 808.3-13.58 810.45-12.7 811.63-11.33 812.8-9.95 812.8-7.55L812.8-7.55Q812.8-3.75 809.98-1.63 807.15 0.5 802.45 0.5ZM817.69-7.65L817.69-7.65Q817.69-10.15 819.12-12.03 820.54-13.9 823.04-14.93 825.54-15.95 828.84-15.95L828.84-15.95Q830.59-15.95 832.42-15.7 834.24-15.45 835.64-14.9L835.64-14.9 835.64-16.55Q835.64-19.3 833.99-20.85 832.34-22.4 829.24-22.4L829.24-22.4Q827.04-22.4 825.09-21.63 823.14-20.85 820.94-19.45L820.94-19.45 819.09-23.15Q821.69-24.9 824.32-25.75 826.94-26.6 829.84-26.6L829.84-26.6Q835.09-26.6 838.12-23.83 841.14-21.05 841.14-15.95L841.14-15.95 841.14-6.2Q841.14-5.25 841.47-4.85 841.79-4.45 842.59-4.4L842.59-4.4 842.59 0Q841.84 0.15 841.24 0.2 840.64 0.25 840.24 0.25L840.24 0.25Q838.49 0.25 837.59-0.6 836.69-1.45 836.54-2.6L836.54-2.6 836.39-4.1Q834.69-1.9 832.04-0.7 829.39 0.5 826.69 0.5L826.69 0.5Q824.09 0.5 822.04-0.58 819.99-1.65 818.84-3.5 817.69-5.35 817.69-7.65ZM834.34-6.05L834.34-6.05Q834.94-6.7 835.29-7.35 835.64-8 835.64-8.5L835.64-8.5 835.64-11.5Q834.24-12.05 832.69-12.33 831.14-12.6 829.64-12.6L829.64-12.6Q826.64-12.6 824.77-11.4 822.89-10.2 822.89-8.1L822.89-8.1Q822.89-6.95 823.52-5.9 824.14-4.85 825.32-4.2 826.49-3.55 828.24-3.55L828.24-3.55Q830.04-3.55 831.69-4.25 833.34-4.95 834.34-6.05ZM848.03-13.05L848.03-13.05Q848.03-16.8 849.56-19.88 851.08-22.95 853.73-24.78 856.38-26.6 859.83-26.6L859.83-26.6Q862.83-26.6 865.26-25.05 867.68-23.5 869.03-21.2L869.03-21.2 869.03-36.5 874.53-36.5 874.53-6.2Q874.53-5.25 874.88-4.85 875.23-4.45 876.03-4.4L876.03-4.4 876.03 0Q874.48 0.25 873.63 0.25L873.63 0.25Q872.08 0.25 871.01-0.65 869.93-1.55 869.88-2.8L869.88-2.8 869.83-4.75Q868.33-2.25 865.78-0.88 863.23 0.5 860.48 0.5L860.48 0.5Q857.78 0.5 855.51-0.55 853.23-1.6 851.56-3.5 849.88-5.4 848.96-7.85 848.03-10.3 848.03-13.05ZM869.03-9.4L869.03-9.4 869.03-16.25Q868.48-17.85 867.26-19.13 866.03-20.4 864.51-21.15 862.98-21.9 861.48-21.9L861.48-21.9Q859.73-21.9 858.31-21.15 856.88-20.4 855.86-19.15 854.83-17.9 854.28-16.3 853.73-14.7 853.73-12.95L853.73-12.95Q853.73-11.15 854.33-9.58 854.93-8 856.06-6.78 857.18-5.55 858.66-4.88 860.13-4.2 861.88-4.2L861.88-4.2Q862.98-4.2 864.11-4.6 865.23-5 866.26-5.7 867.28-6.4 868.01-7.35 868.73-8.3 869.03-9.4ZM895.17 0.5L895.17 0.5Q892.07 0.5 889.62-0.58 887.17-1.65 885.39-3.55 883.62-5.45 882.67-7.88 881.72-10.3 881.72-13.05L881.72-13.05Q881.72-15.8 882.67-18.25 883.62-20.7 885.39-22.58 887.17-24.45 889.64-25.53 892.12-26.6 895.17-26.6L895.17-26.6Q898.22-26.6 900.69-25.53 903.17-24.45 904.94-22.58 906.72-20.7 907.67-18.25 908.62-15.8 908.62-13.05L908.62-13.05Q908.62-10.3 907.67-7.88 906.72-5.45 904.94-3.55 903.17-1.65 900.69-0.58 898.22 0.5 895.17 0.5ZM887.37-13L887.37-13Q887.37-10.5 888.42-8.5 889.47-6.5 891.22-5.35 892.97-4.2 895.17-4.2L895.17-4.2Q897.32-4.2 899.09-5.38 900.87-6.55 901.92-8.58 902.97-10.6 902.97-13.05L902.97-13.05Q902.97-15.55 901.92-17.55 900.87-19.55 899.09-20.73 897.32-21.9 895.17-21.9L895.17-21.9Q892.97-21.9 891.22-20.7 889.47-19.5 888.42-17.53 887.37-15.55 887.37-13ZM944.5 0.5L944.5 0.5Q941.35 0.5 938.95-1 936.55-2.5 935.15-4.9L935.15-4.9 935.15 10.65 929.65 10.65 929.65-26.15 934.5-26.15 934.5-21.45Q936-23.8 938.4-25.2 940.8-26.6 943.75-26.6L943.75-26.6Q946.45-26.6 948.7-25.53 950.95-24.45 952.6-22.55 954.25-20.65 955.17-18.23 956.1-15.8 956.1-13.1L956.1-13.1Q956.1-9.35 954.62-6.25 953.15-3.15 950.52-1.33 947.9 0.5 944.5 0.5ZM942.7-4.2L942.7-4.2Q944.45-4.2 945.87-4.95 947.3-5.7 948.32-6.95 949.35-8.2 949.9-9.8 950.45-11.4 950.45-13.1L950.45-13.1Q950.45-14.9 949.85-16.5 949.25-18.1 948.12-19.3 947-20.5 945.52-21.2 944.05-21.9 942.3-21.9L942.3-21.9Q941.25-21.9 940.1-21.5 938.95-21.1 937.95-20.4 936.95-19.7 936.2-18.75 935.45-17.8 935.15-16.75L935.15-16.75 935.15-9.9Q935.85-8.3 937-7.03 938.15-5.75 939.65-4.98 941.15-4.2 942.7-4.2ZM974.68 0.5L974.68 0.5Q971.58 0.5 969.13-0.58 966.68-1.65 964.91-3.55 963.13-5.45 962.18-7.88 961.23-10.3 961.23-13.05L961.23-13.05Q961.23-15.8 962.18-18.25 963.13-20.7 964.91-22.58 966.68-24.45 969.16-25.53 971.63-26.6 974.68-26.6L974.68-26.6Q977.73-26.6 980.21-25.53 982.68-24.45 984.46-22.58 986.23-20.7 987.18-18.25 988.13-15.8 988.13-13.05L988.13-13.05Q988.13-10.3 987.18-7.88 986.23-5.45 984.46-3.55 982.68-1.65 980.21-0.58 977.73 0.5 974.68 0.5ZM966.88-13L966.88-13Q966.88-10.5 967.93-8.5 968.98-6.5 970.73-5.35 972.48-4.2 974.68-4.2L974.68-4.2Q976.83-4.2 978.61-5.38 980.38-6.55 981.43-8.58 982.48-10.6 982.48-13.05L982.48-13.05Q982.48-15.55 981.43-17.55 980.38-19.55 978.61-20.73 976.83-21.9 974.68-21.9L974.68-21.9Q972.48-21.9 970.73-20.7 968.98-19.5 967.93-17.53 966.88-15.55 966.88-13ZM1009.62-26.35L1009.62-21.4Q1006.42-21.35 1003.95-19.95 1001.47-18.55 1000.42-16L1000.42-16 1000.42 0 994.92 0 994.92-26.15 1000.02-26.15 1000.02-20.3Q1001.37-23 1003.57-24.63 1005.77-26.25 1008.22-26.4L1008.22-26.4Q1008.72-26.4 1009.05-26.4 1009.37-26.4 1009.62-26.35L1009.62-26.35ZM1034.95 0L1029.35 0 1029.35-35.5 1034.95-35.5 1034.95 0ZM1041.19 0L1055.09-35.5 1060.39-35.5 1074.19 0 1068.29 0 1064.54-9.65 1050.84-9.65 1047.14 0 1041.19 0ZM1051.84-13.8L1063.44-13.8 1057.74-29.35 1051.84-13.8Z"
                                                                  opacity="1" transform="matrix(1,0,0,1,0,0)"
                                                                  fill="#202020" class="slogan-text-1"
                                                                  data-fill-palette-color="secondary"
                                                                  id="text-1"></path>
                                                        </svg>
                                                    </g>
                                                </svg>
                                            </g>
                                        </svg>
                                    </g>
                                </svg>
                            </g>
                            <g>
                                <svg viewBox="0 0 104.35648605405571 104.35648605405571" height="104.35648605405571"
                                     width="104.35648605405571">
                                    <g>
                                        <svg></svg>
                                    </g>
                                    <g id="icon-0">
                                        <svg viewBox="0 0 104.35648605405571 104.35648605405571"
                                             height="104.35648605405571" width="104.35648605405571">
                                            <g>
                                                <path d="M0 52.178c0-28.817 23.361-52.178 52.178-52.178 28.817 0 52.178 23.361 52.178 52.178 0 28.817-23.361 52.178-52.178 52.178-28.817 0-52.178-23.361-52.178-52.178zM52.178 102.392c27.732 0 50.214-22.482 50.214-50.214 0-27.732-22.482-50.214-50.214-50.214-27.732 0-50.214 22.482-50.214 50.214 0 27.732 22.482 50.214 50.214 50.214z"
                                                      data-fill-palette-color="accent" fill="#202020"
                                                      stroke="transparent"></path>
                                            </g>
                                            <g transform="matrix(1,0,0,1,29.198734670432483,25.31360154068046)">
                                                <svg viewBox="0 0 45.95901671319074 53.72928297269479"
                                                     height="53.72928297269479" width="45.95901671319074">
                                                    <g>
                                                        <svg xmlns="http://www.w3.org/2000/svg" xmlns:xlink="http://www.w3.org/1999/xlink" version="1.1" x="0" y="0" viewBox="11.8 4 76.30000000000003 89.19999999999999" style="enable-background:new 0 0 100 100;" xml:space="preserve" height="53.72928297269479" width="45.95901671319074" class="icon-cg-0" data-fill-palette-color="accent" id="cg-0"><g fill="#202020" data-fill-palette-color="accent"><g fill="#202020" data-fill-palette-color="accent"><path d="M80.1 11.2C76.5 6.5 71.2 4 64.9 4c-4.2 0-7.7 1.4-10.5 4.2-7.6 7.6-7.5 23.6-7.5 40.5 0 13.6 0 29-4.8 33.8-1 1-2.2 1.5-3.9 1.5-3.4 0-5.9-1.1-7.8-3.5-4.7-6-4.8-18.3-3.7-28.8-0.6 0.1-1.2 0.1-1.8 0.1-2.6 0-5.1-0.6-7.3-1.7-1.3 11.8-1.3 27.2 5.5 36 3.6 4.6 8.8 7.1 15 7.1 4.1 0 7.6-1.4 10.4-4.2 7.5-7.5 7.5-23.4 7.5-40.3 0-13.6 0-29.1 4.8-34 1-1 2.3-1.5 4-1.5 3.5 0 6 1.1 7.9 3.6 4.7 6 4.8 18.2 3.6 28.7 0.6-0.1 1.2-0.1 1.8-0.1 2.6 0 5.1 0.6 7.3 1.7 0.1-1.2 0.3-2.4 0.4-3.7C87.1 28.6 85.2 17.7 80.1 11.2z" fill="#202020" data-fill-palette-color="accent"></path><circle
                                                                cx="78.4" cy="61.9" r="9.7" fill="#202020"
                                                                data-fill-palette-color="accent"></circle><path
                                                                d="M23 21.5c-6.2 0-11.2 5-11.2 11.2 0 6.2 5 11.2 11.2 11.2 6.2 0 11.2-5 11.2-11.2C34.2 26.5 29.2 21.5 23 21.5zM23 38.3c-3.1 0-5.6-2.5-5.6-5.6 0-3.1 2.5-5.6 5.6-5.6 3.1 0 5.6 2.5 5.6 5.6C28.6 35.8 26.1 38.3 23 38.3z"
                                                                fill="#202020" data-fill-palette-color="accent"></path></g></g></svg>
                                                    </g>
                                                </svg>
                                            </g>
                                        </svg>
                                    </g>
                                </svg>
                            </g>
                        </svg>
                    </g>
                    <defs></defs>
                </svg>
                <rect width="395.52" height="80.90598954137579" fill="none" stroke="none" visibility="hidden"></rect>
            </g>
        </svg>
    </g>
</svg>