<svg xmlns="http://www.w3.org/2000/svg" version="1.1" xmlns:xlink="http://www.w3.org/1999/xlink"
     xmlns:svgjs="http://svgjs.dev/svgjs" width="2000" height="651" viewBox="0 0 2000 651">
    <g transform="matrix(1,0,0,1,-1.2121212121212466,0.10588876920655821)">
        <svg viewBox="0 0 396 129" data-background-color="#ffffff" preserveAspectRatio="xMidYMid meet" height="651"
             width="2000" xmlns="http://www.w3.org/2000/svg" xmlns:xlink="http://www.w3.org/1999/xlink">
            <g id="tight-bounds" transform="matrix(1,0,0,1,0.2400000000000091,-0.02098256716996616)">
                <svg viewBox="0 0 395.52 129.04172956645934" height="129.04172956645934" width="395.52">
                    <g>
                        <svg viewBox="0 0 623.50767764764 203.4246286448672" height="129.04172956645934" width="395.52">
                            <g transform="matrix(1,0,0,1,227.98767764764003,60.18521194838331)">
                                <svg viewBox="0 0 395.52 83.05420474810057" height="83.05420474810057" width="395.52">
                                    <g id="textblocktransform">
                                        <svg viewBox="0 0 395.52 83.05420474810057" height="83.05420474810057"
                                             width="395.52" id="textblock">
                                            <g>
                                                <svg viewBox="0 0 395.52 52.023604692499106" height="52.023604692499106"
                                                     width="395.52">
                                                    <g transform="matrix(1,0,0,1,0,0)">
                                                        <svg width="395.52" viewBox="0.9 -36.5 281.27000000000004 37"
                                                             height="52.023604692499106" data-palette-color="#313131">
                                                            <path d="M28.3-31.9L24.7-25.1Q24.55-25.35 23.65-25.88 22.75-26.4 21.4-27 20.05-27.6 18.45-28.05 16.85-28.5 15.25-28.5L15.25-28.5Q13.15-28.5 12-27.78 10.85-27.05 10.85-25.55L10.85-25.55Q10.85-24.35 11.73-23.65 12.6-22.95 14.25-22.43 15.9-21.9 18.3-21.2L18.3-21.2Q21.7-20.3 24.2-19.03 26.7-17.75 28.03-15.75 29.35-13.75 29.35-10.45L29.35-10.45Q29.35-7.45 28.25-5.38 27.15-3.3 25.28-2.02 23.4-0.75 21-0.18 18.6 0.4 16.05 0.4L16.05 0.4Q13.45 0.4 10.73-0.13 8-0.65 5.5-1.63 3-2.6 0.9-4L0.9-4 4.5-11.15Q4.7-10.9 5.8-10.23 6.9-9.55 8.53-8.83 10.15-8.1 12.15-7.55 14.15-7 16.2-7L16.2-7Q18.4-7 19.48-7.7 20.55-8.4 20.55-9.65L20.55-9.65Q20.55-11 19.43-11.75 18.3-12.5 16.38-13.1 14.45-13.7 11.95-14.45L11.95-14.45Q8.7-15.45 6.58-16.7 4.45-17.95 3.43-19.75 2.4-21.55 2.4-24.25L2.4-24.25Q2.4-28 4.17-30.58 5.95-33.15 8.95-34.48 11.95-35.8 15.5-35.8L15.5-35.8Q18-35.8 20.33-35.2 22.65-34.6 24.68-33.7 26.7-32.8 28.3-31.9L28.3-31.9ZM59.45 0L50.95 0 44.1-10.5 41.3-7.65 41.3 0 33.3 0 33.3-36.5 41.3-36.5 41.3-15.4 50.2-26.25 58.65-26.25 49.2-14.95 59.45 0ZM69.75 0L61.75 0 61.75-26.25 69.75-26.25 69.75 0ZM69.75-29.25L61.75-29.25 61.75-36.5 69.75-36.5 69.75-29.25ZM75.14-6.55L75.14-36.5 83.14-36.5 83.14-9.35Q83.14-7.7 83.74-7 84.34-6.3 85.44-6.3L85.44-6.3Q86.19-6.3 86.97-6.53 87.74-6.75 88.34-7.05L88.34-7.05 89.39-1.05Q87.89-0.35 85.94 0.05 83.99 0.45 82.29 0.45L82.29 0.45Q78.89 0.45 77.02-1.38 75.14-3.2 75.14-6.55L75.14-6.55ZM91.89-6.55L91.89-36.5 99.89-36.5 99.89-9.35Q99.89-7.7 100.49-7 101.09-6.3 102.19-6.3L102.19-6.3Q102.94-6.3 103.72-6.53 104.49-6.75 105.09-7.05L105.09-7.05 106.14-1.05Q104.64-0.35 102.69 0.05 100.74 0.45 99.04 0.45L99.04 0.45Q95.64 0.45 93.77-1.38 91.89-3.2 91.89-6.55L91.89-6.55ZM127.99 0L119.79 0 119.79-35.5 134.94-35.5Q137.49-35.5 139.61-34.48 141.74-33.45 143.29-31.73 144.84-30 145.69-27.85 146.54-25.7 146.54-23.45L146.54-23.45Q146.54-20.4 145.11-17.65 143.69-14.9 141.16-13.18 138.64-11.45 135.19-11.45L135.19-11.45 127.99-11.45 127.99 0ZM127.99-28.3L127.99-18.6 134.69-18.6Q135.64-18.6 136.44-19.15 137.24-19.7 137.74-20.8 138.24-21.9 138.24-23.5L138.24-23.5Q138.24-25.15 137.66-26.23 137.09-27.3 136.21-27.8 135.34-28.3 134.39-28.3L134.39-28.3 127.99-28.3ZM148.28-7.85L148.28-7.85Q148.28-10.45 149.73-12.4 151.18-14.35 153.73-15.48 156.28-16.6 159.58-16.6L159.58-16.6Q161.18-16.6 162.73-16.32 164.28-16.05 165.43-15.55L165.43-15.55 165.43-16.7Q165.43-18.85 164.13-20 162.83-21.15 160.18-21.15L160.18-21.15Q157.98-21.15 156.06-20.4 154.13-19.65 151.98-18.25L151.98-18.25 149.58-23.35Q152.18-25.05 155.01-25.9 157.83-26.75 160.98-26.75L160.98-26.75Q166.88-26.75 170.16-23.93 173.43-21.1 173.43-15.75L173.43-15.75 173.43-8.9Q173.43-7.7 173.81-7.23 174.18-6.75 175.13-6.65L175.13-6.65 175.13 0Q174.13 0.2 173.26 0.3 172.38 0.4 171.73 0.4L171.73 0.4Q169.48 0.4 168.31-0.5 167.13-1.4 166.83-2.95L166.83-2.95 166.68-4.1Q164.93-1.85 162.51-0.68 160.08 0.5 157.43 0.5L157.43 0.5Q154.83 0.5 152.76-0.6 150.68-1.7 149.48-3.6 148.28-5.5 148.28-7.85ZM164.18-6.85L164.18-6.85Q164.73-7.3 165.08-7.85 165.43-8.4 165.43-8.9L165.43-8.9 165.43-11.25Q164.43-11.65 163.21-11.88 161.98-12.1 160.93-12.1L160.93-12.1Q158.73-12.1 157.28-11.13 155.83-10.15 155.83-8.55L155.83-8.55Q155.83-7.65 156.33-6.9 156.83-6.15 157.71-5.7 158.58-5.25 159.78-5.25L159.78-5.25Q160.98-5.25 162.18-5.7 163.38-6.15 164.18-6.85ZM194.43-7.75L195.98-1.4Q194.88-0.95 193.56-0.5 192.23-0.05 190.78 0.23 189.33 0.5 187.93 0.5L187.93 0.5Q185.93 0.5 184.26-0.18 182.58-0.85 181.61-2.4 180.63-3.95 180.63-6.5L180.63-6.5 180.63-20.2 177.28-20.2 177.28-26.25 180.63-26.25 180.63-34.6 188.63-34.6 188.63-26.25 193.98-26.25 193.98-20.2 188.63-20.2 188.63-9.25Q188.63-7.95 189.28-7.38 189.93-6.8 190.93-6.8L190.93-6.8Q191.78-6.8 192.76-7.1 193.73-7.4 194.43-7.75L194.43-7.75ZM224.38-16.8L224.38 0 216.38 0 216.38-14.75Q216.38-17.3 215.35-18.5 214.33-19.7 212.63-19.7L212.63-19.7Q211.73-19.7 210.6-19.13 209.48-18.55 208.53-17.5 207.58-16.45 207.08-15.05L207.08-15.05 207.08 0 199.08 0 199.08-36.5 207.08-36.5 207.08-21.85Q208.53-24.2 210.9-25.48 213.28-26.75 216.13-26.75L216.13-26.75Q218.83-26.75 220.45-25.85 222.08-24.95 222.93-23.48 223.78-22 224.08-20.25 224.38-18.5 224.38-16.8L224.38-16.8ZM237.17 0L249.42-35.5 258.27-35.5 270.47 0 262.07 0 259.32-7.95 248.27-7.95 245.57 0 237.17 0ZM249.57-13.6L257.97-13.6 253.82-27.25 249.57-13.6ZM282.17 0L273.97 0 273.97-35.5 282.17-35.5 282.17 0Z"
                                                                  opacity="1" transform="matrix(1,0,0,1,0,0)"
                                                                  fill="#313131" class="wordmark-text-0"
                                                                  data-fill-palette-color="primary" id="text-0"></path>
                                                        </svg>
                                                    </g>
                                                </svg>
                                            </g>
                                            <g transform="matrix(1,0,0,1,0,64.30512919388552)">
                                                <svg viewBox="0 0 395.52 18.749075554215047" height="18.749075554215047"
                                                     width="395.52">
                                                    <g transform="matrix(1,0,0,1,0,0)">
                                                        <svg width="395.52" viewBox="4 -36.5 994.55 47.15"
                                                             height="18.749075554215047" data-palette-color="#313131">
                                                            <path d="M9.6-4.95L28.35-4.95 28.35 0 4 0 4-35.5 27.9-35.5 27.9-30.55 9.6-30.55 9.6-20.45 25.45-20.45 25.45-15.8 9.6-15.8 9.6-4.95ZM33.5-5.55L33.5-36.5 39-36.5 39-7.55Q39-5.55 39.6-5 40.2-4.45 41.1-4.45L41.1-4.45Q42.1-4.45 42.97-4.65 43.85-4.85 44.5-5.15L44.5-5.15 45.3-0.8Q44.1-0.3 42.45 0.05 40.8 0.4 39.5 0.4L39.5 0.4Q36.7 0.4 35.1-1.18 33.5-2.75 33.5-5.55L33.5-5.55ZM71.29 0.5L71.29 0.5Q68.24 0.5 65.77-0.58 63.29-1.65 61.49-3.55 59.69-5.45 58.72-7.9 57.74-10.35 57.74-13.1L57.74-13.1Q57.74-16.8 59.42-19.85 61.09-22.9 64.12-24.75 67.14-26.6 71.29-26.6L71.29-26.6Q75.29-26.6 78.27-24.83 81.24-23.05 82.64-20.1L82.64-20.1 77.29-18.4Q76.39-20.05 74.77-20.98 73.14-21.9 71.19-21.9L71.19-21.9Q68.99-21.9 67.22-20.78 65.44-19.65 64.42-17.68 63.39-15.7 63.39-13.1L63.39-13.1Q63.39-10.6 64.44-8.58 65.49-6.55 67.27-5.38 69.04-4.2 71.24-4.2L71.24-4.2Q72.59-4.2 73.87-4.67 75.14-5.15 76.09-5.98 77.04-6.8 77.44-7.8L77.44-7.8 82.84-6.2Q81.99-4.25 80.32-2.75 78.64-1.25 76.37-0.38 74.09 0.5 71.29 0.5ZM85.49-7.65L85.49-7.65Q85.49-10.15 86.92-12.03 88.34-13.9 90.84-14.93 93.34-15.95 96.64-15.95L96.64-15.95Q98.39-15.95 100.22-15.7 102.04-15.45 103.44-14.9L103.44-14.9 103.44-16.55Q103.44-19.3 101.79-20.85 100.14-22.4 97.04-22.4L97.04-22.4Q94.84-22.4 92.89-21.63 90.94-20.85 88.74-19.45L88.74-19.45 86.89-23.15Q89.49-24.9 92.12-25.75 94.74-26.6 97.64-26.6L97.64-26.6Q102.89-26.6 105.92-23.83 108.94-21.05 108.94-15.95L108.94-15.95 108.94-6.2Q108.94-5.25 109.27-4.85 109.59-4.45 110.39-4.4L110.39-4.4 110.39 0Q109.64 0.15 109.04 0.2 108.44 0.25 108.04 0.25L108.04 0.25Q106.29 0.25 105.39-0.6 104.49-1.45 104.34-2.6L104.34-2.6 104.19-4.1Q102.49-1.9 99.84-0.7 97.19 0.5 94.49 0.5L94.49 0.5Q91.89 0.5 89.84-0.58 87.79-1.65 86.64-3.5 85.49-5.35 85.49-7.65ZM102.14-6.05L102.14-6.05Q102.74-6.7 103.09-7.35 103.44-8 103.44-8.5L103.44-8.5 103.44-11.5Q102.04-12.05 100.49-12.33 98.94-12.6 97.44-12.6L97.44-12.6Q94.44-12.6 92.57-11.4 90.69-10.2 90.69-8.1L90.69-8.1Q90.69-6.95 91.32-5.9 91.94-4.85 93.12-4.2 94.29-3.55 96.04-3.55L96.04-3.55Q97.84-3.55 99.49-4.25 101.14-4.95 102.14-6.05ZM155.59-15.95L155.59 0 150.09 0 150.09-14.65Q150.09-18.3 148.89-20 147.69-21.7 145.39-21.7L145.39-21.7Q143.09-21.7 141.11-19.98 139.14-18.25 138.34-15.5L138.34-15.5 138.34 0 132.84 0 132.84-14.65Q132.84-18.3 131.64-20 130.44-21.7 128.19-21.7L128.19-21.7Q125.89-21.7 123.91-20 121.94-18.3 121.09-15.55L121.09-15.55 121.09 0 115.59 0 115.59-26.15 120.59-26.15 120.59-20.9Q122.14-23.65 124.66-25.13 127.19-26.6 130.44-26.6L130.44-26.6Q133.69-26.6 135.56-24.9 137.44-23.2 137.89-20.65L137.89-20.65Q139.59-23.55 142.06-25.08 144.54-26.6 147.74-26.6L147.74-26.6Q150.04-26.6 151.59-25.75 153.14-24.9 153.99-23.43 154.84-21.95 155.21-20.03 155.59-18.1 155.59-15.95L155.59-15.95ZM167.44 0L161.94 0 161.94-26.15 167.44-26.15 167.44 0ZM167.44-30.45L161.94-30.45 161.94-36.5 167.44-36.5 167.44-30.45ZM197.48-15.95L197.48 0 191.98 0 191.98-14.65Q191.98-18.3 190.81-20 189.63-21.7 187.33-21.7L187.33-21.7Q185.73-21.7 184.16-20.9 182.58-20.1 181.33-18.73 180.08-17.35 179.53-15.55L179.53-15.55 179.53 0 174.03 0 174.03-26.15 179.03-26.15 179.03-20.9Q180.03-22.65 181.66-23.93 183.28-25.2 185.33-25.9 187.38-26.6 189.68-26.6L189.68-26.6Q192.03-26.6 193.56-25.75 195.08-24.9 195.96-23.43 196.83-21.95 197.16-20.03 197.48-18.1 197.48-15.95L197.48-15.95ZM215.63 0.5L215.63 0.5Q212.53 0.5 210.08-0.58 207.63-1.65 205.86-3.55 204.08-5.45 203.13-7.88 202.18-10.3 202.18-13.05L202.18-13.05Q202.18-15.8 203.13-18.25 204.08-20.7 205.86-22.58 207.63-24.45 210.11-25.53 212.58-26.6 215.63-26.6L215.63-26.6Q218.68-26.6 221.16-25.53 223.63-24.45 225.41-22.58 227.18-20.7 228.13-18.25 229.08-15.8 229.08-13.05L229.08-13.05Q229.08-10.3 228.13-7.88 227.18-5.45 225.41-3.55 223.63-1.65 221.16-0.58 218.68 0.5 215.63 0.5ZM207.83-13L207.83-13Q207.83-10.5 208.88-8.5 209.93-6.5 211.68-5.35 213.43-4.2 215.63-4.2L215.63-4.2Q217.78-4.2 219.56-5.38 221.33-6.55 222.38-8.58 223.43-10.6 223.43-13.05L223.43-13.05Q223.43-15.55 222.38-17.55 221.33-19.55 219.56-20.73 217.78-21.9 215.63-21.9L215.63-21.9Q213.43-21.9 211.68-20.7 209.93-19.5 208.88-17.53 207.83-15.55 207.83-13ZM261.18 0.5L261.18 0.5Q258.02 0.5 255.63-1 253.22-2.5 251.83-4.9L251.83-4.9 251.83 10.65 246.33 10.65 246.33-26.15 251.18-26.15 251.18-21.45Q252.68-23.8 255.08-25.2 257.48-26.6 260.43-26.6L260.43-26.6Q263.13-26.6 265.38-25.53 267.63-24.45 269.27-22.55 270.93-20.65 271.85-18.23 272.77-15.8 272.77-13.1L272.77-13.1Q272.77-9.35 271.3-6.25 269.82-3.15 267.2-1.33 264.57 0.5 261.18 0.5ZM259.38-4.2L259.38-4.2Q261.13-4.2 262.55-4.95 263.98-5.7 265-6.95 266.02-8.2 266.57-9.8 267.13-11.4 267.13-13.1L267.13-13.1Q267.13-14.9 266.52-16.5 265.93-18.1 264.8-19.3 263.68-20.5 262.2-21.2 260.73-21.9 258.98-21.9L258.98-21.9Q257.93-21.9 256.77-21.5 255.63-21.1 254.63-20.4 253.63-19.7 252.88-18.75 252.13-17.8 251.83-16.75L251.83-16.75 251.83-9.9Q252.53-8.3 253.68-7.03 254.83-5.75 256.32-4.98 257.82-4.2 259.38-4.2ZM275.82-7.65L275.82-7.65Q275.82-10.15 277.25-12.03 278.67-13.9 281.17-14.93 283.67-15.95 286.97-15.95L286.97-15.95Q288.72-15.95 290.55-15.7 292.37-15.45 293.77-14.9L293.77-14.9 293.77-16.55Q293.77-19.3 292.12-20.85 290.47-22.4 287.37-22.4L287.37-22.4Q285.17-22.4 283.22-21.63 281.27-20.85 279.07-19.45L279.07-19.45 277.22-23.15Q279.82-24.9 282.45-25.75 285.07-26.6 287.97-26.6L287.97-26.6Q293.22-26.6 296.25-23.83 299.27-21.05 299.27-15.95L299.27-15.95 299.27-6.2Q299.27-5.25 299.6-4.85 299.92-4.45 300.72-4.4L300.72-4.4 300.72 0Q299.97 0.15 299.37 0.2 298.77 0.25 298.37 0.25L298.37 0.25Q296.62 0.25 295.72-0.6 294.82-1.45 294.67-2.6L294.67-2.6 294.52-4.1Q292.82-1.9 290.17-0.7 287.52 0.5 284.82 0.5L284.82 0.5Q282.22 0.5 280.17-0.58 278.12-1.65 276.97-3.5 275.82-5.35 275.82-7.65ZM292.47-6.05L292.47-6.05Q293.07-6.7 293.42-7.35 293.77-8 293.77-8.5L293.77-8.5 293.77-11.5Q292.37-12.05 290.82-12.33 289.27-12.6 287.77-12.6L287.77-12.6Q284.77-12.6 282.9-11.4 281.02-10.2 281.02-8.1L281.02-8.1Q281.02-6.95 281.65-5.9 282.27-4.85 283.45-4.2 284.62-3.55 286.37-3.55L286.37-3.55Q288.17-3.55 289.82-4.25 291.47-4.95 292.47-6.05ZM320.62-26.35L320.62-21.4Q317.42-21.35 314.94-19.95 312.47-18.55 311.42-16L311.42-16 311.42 0 305.92 0 305.92-26.15 311.02-26.15 311.02-20.3Q312.37-23 314.57-24.63 316.77-26.25 319.22-26.4L319.22-26.4Q319.72-26.4 320.05-26.4 320.37-26.4 320.62-26.35L320.62-26.35ZM322.67-7.65L322.67-7.65Q322.67-10.15 324.09-12.03 325.52-13.9 328.02-14.93 330.52-15.95 333.82-15.95L333.82-15.95Q335.57-15.95 337.39-15.7 339.22-15.45 340.62-14.9L340.62-14.9 340.62-16.55Q340.62-19.3 338.97-20.85 337.32-22.4 334.22-22.4L334.22-22.4Q332.02-22.4 330.07-21.63 328.12-20.85 325.92-19.45L325.92-19.45 324.07-23.15Q326.67-24.9 329.29-25.75 331.92-26.6 334.82-26.6L334.82-26.6Q340.07-26.6 343.09-23.83 346.12-21.05 346.12-15.95L346.12-15.95 346.12-6.2Q346.12-5.25 346.44-4.85 346.77-4.45 347.57-4.4L347.57-4.4 347.57 0Q346.82 0.15 346.22 0.2 345.62 0.25 345.22 0.25L345.22 0.25Q343.47 0.25 342.57-0.6 341.67-1.45 341.52-2.6L341.52-2.6 341.37-4.1Q339.67-1.9 337.02-0.7 334.37 0.5 331.67 0.5L331.67 0.5Q329.07 0.5 327.02-0.58 324.97-1.65 323.82-3.5 322.67-5.35 322.67-7.65ZM339.32-6.05L339.32-6.05Q339.92-6.7 340.27-7.35 340.62-8 340.62-8.5L340.62-8.5 340.62-11.5Q339.22-12.05 337.67-12.33 336.12-12.6 334.62-12.6L334.62-12.6Q331.62-12.6 329.74-11.4 327.87-10.2 327.87-8.1L327.87-8.1Q327.87-6.95 328.49-5.9 329.12-4.85 330.29-4.2 331.47-3.55 333.22-3.55L333.22-3.55Q335.02-3.55 336.67-4.25 338.32-4.95 339.32-6.05ZM363.21-7.65L363.21-7.65Q363.21-10.15 364.64-12.03 366.06-13.9 368.56-14.93 371.06-15.95 374.36-15.95L374.36-15.95Q376.11-15.95 377.94-15.7 379.76-15.45 381.16-14.9L381.16-14.9 381.16-16.55Q381.16-19.3 379.51-20.85 377.86-22.4 374.76-22.4L374.76-22.4Q372.56-22.4 370.61-21.63 368.66-20.85 366.46-19.45L366.46-19.45 364.61-23.15Q367.21-24.9 369.84-25.75 372.46-26.6 375.36-26.6L375.36-26.6Q380.61-26.6 383.64-23.83 386.66-21.05 386.66-15.95L386.66-15.95 386.66-6.2Q386.66-5.25 386.99-4.85 387.31-4.45 388.11-4.4L388.11-4.4 388.11 0Q387.36 0.15 386.76 0.2 386.16 0.25 385.76 0.25L385.76 0.25Q384.01 0.25 383.11-0.6 382.21-1.45 382.06-2.6L382.06-2.6 381.91-4.1Q380.21-1.9 377.56-0.7 374.91 0.5 372.21 0.5L372.21 0.5Q369.61 0.5 367.56-0.58 365.51-1.65 364.36-3.5 363.21-5.35 363.21-7.65ZM379.86-6.05L379.86-6.05Q380.46-6.7 380.81-7.35 381.16-8 381.16-8.5L381.16-8.5 381.16-11.5Q379.76-12.05 378.21-12.33 376.66-12.6 375.16-12.6L375.16-12.6Q372.16-12.6 370.29-11.4 368.41-10.2 368.41-8.1L368.41-8.1Q368.41-6.95 369.04-5.9 369.66-4.85 370.84-4.2 372.01-3.55 373.76-3.55L373.76-3.55Q375.56-3.55 377.21-4.25 378.86-4.95 379.86-6.05ZM408.16 0.5L408.16 0.5Q405.01 0.5 402.61-1 400.21-2.5 398.81-4.9L398.81-4.9 398.81 10.65 393.31 10.65 393.31-26.15 398.16-26.15 398.16-21.45Q399.66-23.8 402.06-25.2 404.46-26.6 407.41-26.6L407.41-26.6Q410.11-26.6 412.36-25.53 414.61-24.45 416.26-22.55 417.91-20.65 418.83-18.23 419.76-15.8 419.76-13.1L419.76-13.1Q419.76-9.35 418.28-6.25 416.81-3.15 414.19-1.33 411.56 0.5 408.16 0.5ZM406.36-4.2L406.36-4.2Q408.11-4.2 409.53-4.95 410.96-5.7 411.99-6.95 413.01-8.2 413.56-9.8 414.11-11.4 414.11-13.1L414.11-13.1Q414.11-14.9 413.51-16.5 412.91-18.1 411.78-19.3 410.66-20.5 409.19-21.2 407.71-21.9 405.96-21.9L405.96-21.9Q404.91-21.9 403.76-21.5 402.61-21.1 401.61-20.4 400.61-19.7 399.86-18.75 399.11-17.8 398.81-16.75L398.81-16.75 398.81-9.9Q399.51-8.3 400.66-7.03 401.81-5.75 403.31-4.98 404.81-4.2 406.36-4.2ZM439.41-26.35L439.41-21.4Q436.21-21.35 433.73-19.95 431.26-18.55 430.21-16L430.21-16 430.21 0 424.71 0 424.71-26.15 429.81-26.15 429.81-20.3Q431.16-23 433.36-24.63 435.56-26.25 438.01-26.4L438.01-26.4Q438.51-26.4 438.83-26.4 439.16-26.4 439.41-26.35L439.41-26.35ZM454.8 0.5L454.8 0.5Q451.75 0.5 449.28-0.58 446.8-1.65 445-3.53 443.2-5.4 442.23-7.83 441.25-10.25 441.25-13L441.25-13Q441.25-16.7 442.95-19.78 444.65-22.85 447.7-24.73 450.75-26.6 454.85-26.6L454.85-26.6Q458.95-26.6 461.93-24.73 464.9-22.85 466.55-19.8 468.2-16.75 468.2-13.25L468.2-13.25Q468.2-12.65 468.15-12.13 468.1-11.6 468.05-11.25L468.05-11.25 447.1-11.25Q447.25-8.95 448.38-7.23 449.5-5.5 451.25-4.53 453-3.55 455-3.55L455-3.55Q457.2-3.55 459.18-4.65 461.15-5.75 461.85-7.55L461.85-7.55 466.55-6.2Q465.7-4.3 463.98-2.78 462.25-1.25 459.9-0.38 457.55 0.5 454.8 0.5ZM446.95-14.9L446.95-14.9 462.75-14.9Q462.6-17.15 461.48-18.88 460.35-20.6 458.63-21.58 456.9-22.55 454.8-22.55L454.8-22.55Q452.75-22.55 451.03-21.58 449.3-20.6 448.2-18.88 447.1-17.15 446.95-14.9ZM496.15-15.95L496.15 0 490.65 0 490.65-14.65Q490.65-18.3 489.48-20 488.3-21.7 486-21.7L486-21.7Q484.4-21.7 482.83-20.9 481.25-20.1 480-18.73 478.75-17.35 478.2-15.55L478.2-15.55 478.2 0 472.7 0 472.7-26.15 477.7-26.15 477.7-20.9Q478.7-22.65 480.33-23.93 481.95-25.2 484-25.9 486.05-26.6 488.35-26.6L488.35-26.6Q490.7-26.6 492.23-25.75 493.75-24.9 494.63-23.43 495.5-21.95 495.83-20.03 496.15-18.1 496.15-15.95L496.15-15.95ZM500.9-13.05L500.9-13.05Q500.9-16.8 502.43-19.88 503.95-22.95 506.6-24.78 509.25-26.6 512.7-26.6L512.7-26.6Q515.7-26.6 518.13-25.05 520.55-23.5 521.9-21.2L521.9-21.2 521.9-36.5 527.4-36.5 527.4-6.2Q527.4-5.25 527.75-4.85 528.1-4.45 528.9-4.4L528.9-4.4 528.9 0Q527.35 0.25 526.5 0.25L526.5 0.25Q524.95 0.25 523.88-0.65 522.8-1.55 522.75-2.8L522.75-2.8 522.7-4.75Q521.2-2.25 518.65-0.88 516.1 0.5 513.35 0.5L513.35 0.5Q510.65 0.5 508.38-0.55 506.1-1.6 504.43-3.5 502.75-5.4 501.82-7.85 500.9-10.3 500.9-13.05ZM521.9-9.4L521.9-9.4 521.9-16.25Q521.35-17.85 520.13-19.13 518.9-20.4 517.38-21.15 515.85-21.9 514.35-21.9L514.35-21.9Q512.6-21.9 511.18-21.15 509.75-20.4 508.73-19.15 507.7-17.9 507.15-16.3 506.6-14.7 506.6-12.95L506.6-12.95Q506.6-11.15 507.2-9.58 507.8-8 508.93-6.78 510.05-5.55 511.52-4.88 513-4.2 514.75-4.2L514.75-4.2Q515.85-4.2 516.98-4.6 518.1-5 519.13-5.7 520.15-6.4 520.88-7.35 521.6-8.3 521.9-9.4ZM546.25 0.5L546.25 0.5Q543.2 0.5 540.72-0.58 538.25-1.65 536.45-3.53 534.65-5.4 533.67-7.83 532.7-10.25 532.7-13L532.7-13Q532.7-16.7 534.4-19.78 536.1-22.85 539.15-24.73 542.2-26.6 546.3-26.6L546.3-26.6Q550.4-26.6 553.37-24.73 556.35-22.85 558-19.8 559.65-16.75 559.65-13.25L559.65-13.25Q559.65-12.65 559.6-12.13 559.55-11.6 559.5-11.25L559.5-11.25 538.55-11.25Q538.7-8.95 539.82-7.23 540.95-5.5 542.7-4.53 544.45-3.55 546.45-3.55L546.45-3.55Q548.65-3.55 550.62-4.65 552.6-5.75 553.3-7.55L553.3-7.55 558-6.2Q557.15-4.3 555.42-2.78 553.7-1.25 551.35-0.38 549 0.5 546.25 0.5ZM538.4-14.9L538.4-14.9 554.2-14.9Q554.05-17.15 552.92-18.88 551.8-20.6 550.07-21.58 548.35-22.55 546.25-22.55L546.25-22.55Q544.2-22.55 542.47-21.58 540.75-20.6 539.65-18.88 538.55-17.15 538.4-14.9ZM578.84-26.35L578.84-21.4Q575.64-21.35 573.17-19.95 570.69-18.55 569.64-16L569.64-16 569.64 0 564.14 0 564.14-26.15 569.24-26.15 569.24-20.3Q570.59-23 572.79-24.63 574.99-26.25 577.44-26.4L577.44-26.4Q577.94-26.4 578.27-26.4 578.59-26.4 578.84-26.35L578.84-26.35ZM580.64 4.85L578.04 4.85 579.24-0.3 577.44-0.3 577.44-6.4 582.39-6.4 582.39-0.3 580.64 4.85ZM606.59 0L601.09 0 601.09-26.15 606.59-26.15 606.59 0ZM606.59-30.45L601.09-30.45 601.09-36.5 606.59-36.5 606.59-30.45ZM653.18-15.95L653.18 0 647.68 0 647.68-14.65Q647.68-18.3 646.48-20 645.28-21.7 642.98-21.7L642.98-21.7Q640.68-21.7 638.71-19.98 636.73-18.25 635.93-15.5L635.93-15.5 635.93 0 630.43 0 630.43-14.65Q630.43-18.3 629.23-20 628.03-21.7 625.78-21.7L625.78-21.7Q623.48-21.7 621.51-20 619.53-18.3 618.68-15.55L618.68-15.55 618.68 0 613.18 0 613.18-26.15 618.18-26.15 618.18-20.9Q619.73-23.65 622.26-25.13 624.78-26.6 628.03-26.6L628.03-26.6Q631.28-26.6 633.16-24.9 635.03-23.2 635.48-20.65L635.48-20.65Q637.18-23.55 639.66-25.08 642.13-26.6 645.33-26.6L645.33-26.6Q647.63-26.6 649.18-25.75 650.73-24.9 651.58-23.43 652.43-21.95 652.81-20.03 653.18-18.1 653.18-15.95L653.18-15.95ZM674.38 0.5L674.38 0.5Q671.23 0.5 668.83-1 666.43-2.5 665.03-4.9L665.03-4.9 665.03 10.65 659.53 10.65 659.53-26.15 664.38-26.15 664.38-21.45Q665.88-23.8 668.28-25.2 670.68-26.6 673.63-26.6L673.63-26.6Q676.33-26.6 678.58-25.53 680.83-24.45 682.48-22.55 684.13-20.65 685.06-18.23 685.98-15.8 685.98-13.1L685.98-13.1Q685.98-9.35 684.51-6.25 683.03-3.15 680.41-1.33 677.78 0.5 674.38 0.5ZM672.58-4.2L672.58-4.2Q674.33-4.2 675.76-4.95 677.18-5.7 678.21-6.95 679.23-8.2 679.78-9.8 680.33-11.4 680.33-13.1L680.33-13.1Q680.33-14.9 679.73-16.5 679.13-18.1 678.01-19.3 676.88-20.5 675.41-21.2 673.93-21.9 672.18-21.9L672.18-21.9Q671.13-21.9 669.98-21.5 668.83-21.1 667.83-20.4 666.83-19.7 666.08-18.75 665.33-17.8 665.03-16.75L665.03-16.75 665.03-9.9Q665.73-8.3 666.88-7.03 668.03-5.75 669.53-4.98 671.03-4.2 672.58-4.2ZM690.68-10.15L690.68-10.15 690.68-26.15 696.18-26.15 696.18-11.25Q696.18-7.75 697.45-5.98 698.73-4.2 701.18-4.2L701.18-4.2Q702.73-4.2 704.2-4.85 705.68-5.5 706.9-6.78 708.13-8.05 708.88-9.85L708.88-9.85 708.88-26.15 714.38-26.15 714.38-6.2Q714.38-5.25 714.73-4.85 715.08-4.45 715.88-4.4L715.88-4.4 715.88 0Q715.03 0.15 714.48 0.2 713.93 0.25 713.43 0.25L713.43 0.25Q711.93 0.25 710.93-0.58 709.93-1.4 709.78-2.7L709.78-2.7 709.68-5.3Q707.93-2.45 705.13-0.98 702.33 0.5 698.98 0.5L698.98 0.5Q694.88 0.5 692.78-2.2 690.68-4.9 690.68-10.15ZM721.43-5.55L721.43-36.5 726.93-36.5 726.93-7.55Q726.93-5.55 727.53-5 728.13-4.45 729.03-4.45L729.03-4.45Q730.03-4.45 730.9-4.65 731.78-4.85 732.43-5.15L732.43-5.15 733.23-0.8Q732.03-0.3 730.38 0.05 728.73 0.4 727.43 0.4L727.43 0.4Q724.63 0.4 723.03-1.18 721.43-2.75 721.43-5.55L721.43-5.55ZM745.72 0.5L745.72 0.5Q742.42 0.5 739.47-0.58 736.52-1.65 734.42-3.8L734.42-3.8 736.47-7.5Q738.72-5.5 741-4.6 743.27-3.7 745.52-3.7L745.52-3.7Q747.82-3.7 749.27-4.58 750.72-5.45 750.72-7.15L750.72-7.15Q750.72-8.4 749.97-9 749.22-9.6 747.8-10.05 746.37-10.5 744.37-11.05L744.37-11.05Q741.57-11.9 739.67-12.83 737.77-13.75 736.82-15.1 735.87-16.45 735.87-18.55L735.87-18.55Q735.87-21.1 737.17-22.9 738.47-24.7 740.8-25.65 743.12-26.6 746.17-26.6L746.17-26.6Q749.02-26.6 751.45-25.73 753.87-24.85 755.72-23L755.72-23 753.37-19.35Q751.62-20.95 749.8-21.7 747.97-22.45 745.87-22.45L745.87-22.45Q744.67-22.45 743.57-22.18 742.47-21.9 741.75-21.18 741.02-20.45 741.02-19.15L741.02-19.15Q741.02-18.1 741.62-17.45 742.22-16.8 743.42-16.35 744.62-15.9 746.37-15.35L746.37-15.35Q749.42-14.45 751.57-13.58 753.72-12.7 754.9-11.33 756.07-9.95 756.07-7.55L756.07-7.55Q756.07-3.75 753.25-1.63 750.42 0.5 745.72 0.5ZM759.07-7.65L759.07-7.65Q759.07-10.15 760.5-12.03 761.92-13.9 764.42-14.93 766.92-15.95 770.22-15.95L770.22-15.95Q771.97-15.95 773.8-15.7 775.62-15.45 777.02-14.9L777.02-14.9 777.02-16.55Q777.02-19.3 775.37-20.85 773.72-22.4 770.62-22.4L770.62-22.4Q768.42-22.4 766.47-21.63 764.52-20.85 762.32-19.45L762.32-19.45 760.47-23.15Q763.07-24.9 765.7-25.75 768.32-26.6 771.22-26.6L771.22-26.6Q776.47-26.6 779.5-23.83 782.52-21.05 782.52-15.95L782.52-15.95 782.52-6.2Q782.52-5.25 782.85-4.85 783.17-4.45 783.97-4.4L783.97-4.4 783.97 0Q783.22 0.15 782.62 0.2 782.02 0.25 781.62 0.25L781.62 0.25Q779.87 0.25 778.97-0.6 778.07-1.45 777.92-2.6L777.92-2.6 777.77-4.1Q776.07-1.9 773.42-0.7 770.77 0.5 768.07 0.5L768.07 0.5Q765.47 0.5 763.42-0.58 761.37-1.65 760.22-3.5 759.07-5.35 759.07-7.65ZM775.72-6.05L775.72-6.05Q776.32-6.7 776.67-7.35 777.02-8 777.02-8.5L777.02-8.5 777.02-11.5Q775.62-12.05 774.07-12.33 772.52-12.6 771.02-12.6L771.02-12.6Q768.02-12.6 766.15-11.4 764.27-10.2 764.27-8.1L764.27-8.1Q764.27-6.95 764.9-5.9 765.52-4.85 766.7-4.2 767.87-3.55 769.62-3.55L769.62-3.55Q771.42-3.55 773.07-4.25 774.72-4.95 775.72-6.05ZM787.52-13.05L787.52-13.05Q787.52-16.8 789.04-19.88 790.57-22.95 793.22-24.78 795.87-26.6 799.32-26.6L799.32-26.6Q802.32-26.6 804.74-25.05 807.17-23.5 808.52-21.2L808.52-21.2 808.52-36.5 814.02-36.5 814.02-6.2Q814.02-5.25 814.37-4.85 814.72-4.45 815.52-4.4L815.52-4.4 815.52 0Q813.97 0.25 813.12 0.25L813.12 0.25Q811.57 0.25 810.49-0.65 809.42-1.55 809.37-2.8L809.37-2.8 809.32-4.75Q807.82-2.25 805.27-0.88 802.72 0.5 799.97 0.5L799.97 0.5Q797.27 0.5 794.99-0.55 792.72-1.6 791.04-3.5 789.37-5.4 788.44-7.85 787.52-10.3 787.52-13.05ZM808.52-9.4L808.52-9.4 808.52-16.25Q807.97-17.85 806.74-19.13 805.52-20.4 803.99-21.15 802.47-21.9 800.97-21.9L800.97-21.9Q799.22-21.9 797.79-21.15 796.37-20.4 795.34-19.15 794.32-17.9 793.77-16.3 793.22-14.7 793.22-12.95L793.22-12.95Q793.22-11.15 793.82-9.58 794.42-8 795.54-6.78 796.67-5.55 798.14-4.88 799.62-4.2 801.37-4.2L801.37-4.2Q802.47-4.2 803.59-4.6 804.72-5 805.74-5.7 806.77-6.4 807.49-7.35 808.22-8.3 808.52-9.4ZM832.77 0.5L832.77 0.5Q829.67 0.5 827.22-0.58 824.77-1.65 822.99-3.55 821.22-5.45 820.27-7.88 819.32-10.3 819.32-13.05L819.32-13.05Q819.32-15.8 820.27-18.25 821.22-20.7 822.99-22.58 824.77-24.45 827.24-25.53 829.72-26.6 832.77-26.6L832.77-26.6Q835.82-26.6 838.29-25.53 840.77-24.45 842.54-22.58 844.32-20.7 845.27-18.25 846.22-15.8 846.22-13.05L846.22-13.05Q846.22-10.3 845.27-7.88 844.32-5.45 842.54-3.55 840.77-1.65 838.29-0.58 835.82 0.5 832.77 0.5ZM824.97-13L824.97-13Q824.97-10.5 826.02-8.5 827.07-6.5 828.82-5.35 830.57-4.2 832.77-4.2L832.77-4.2Q834.92-4.2 836.69-5.38 838.47-6.55 839.52-8.58 840.57-10.6 840.57-13.05L840.57-13.05Q840.57-15.55 839.52-17.55 838.47-19.55 836.69-20.73 834.92-21.9 832.77-21.9L832.77-21.9Q830.57-21.9 828.82-20.7 827.07-19.5 826.02-17.53 824.97-15.55 824.97-13ZM878.31 0.5L878.31 0.5Q875.16 0.5 872.76-1 870.36-2.5 868.96-4.9L868.96-4.9 868.96 10.65 863.46 10.65 863.46-26.15 868.31-26.15 868.31-21.45Q869.81-23.8 872.21-25.2 874.61-26.6 877.56-26.6L877.56-26.6Q880.26-26.6 882.51-25.53 884.76-24.45 886.41-22.55 888.06-20.65 888.99-18.23 889.91-15.8 889.91-13.1L889.91-13.1Q889.91-9.35 888.44-6.25 886.96-3.15 884.34-1.33 881.71 0.5 878.31 0.5ZM876.51-4.2L876.51-4.2Q878.26-4.2 879.69-4.95 881.11-5.7 882.14-6.95 883.16-8.2 883.71-9.8 884.26-11.4 884.26-13.1L884.26-13.1Q884.26-14.9 883.66-16.5 883.06-18.1 881.94-19.3 880.81-20.5 879.34-21.2 877.86-21.9 876.11-21.9L876.11-21.9Q875.06-21.9 873.91-21.5 872.76-21.1 871.76-20.4 870.76-19.7 870.01-18.75 869.26-17.8 868.96-16.75L868.96-16.75 868.96-9.9Q869.66-8.3 870.81-7.03 871.96-5.75 873.46-4.98 874.96-4.2 876.51-4.2ZM906.61 0.5L906.61 0.5Q903.51 0.5 901.06-0.58 898.61-1.65 896.83-3.55 895.06-5.45 894.11-7.88 893.16-10.3 893.16-13.05L893.16-13.05Q893.16-15.8 894.11-18.25 895.06-20.7 896.83-22.58 898.61-24.45 901.08-25.53 903.56-26.6 906.61-26.6L906.61-26.6Q909.66-26.6 912.13-25.53 914.61-24.45 916.38-22.58 918.16-20.7 919.11-18.25 920.06-15.8 920.06-13.05L920.06-13.05Q920.06-10.3 919.11-7.88 918.16-5.45 916.38-3.55 914.61-1.65 912.13-0.58 909.66 0.5 906.61 0.5ZM898.81-13L898.81-13Q898.81-10.5 899.86-8.5 900.91-6.5 902.66-5.35 904.41-4.2 906.61-4.2L906.61-4.2Q908.76-4.2 910.53-5.38 912.31-6.55 913.36-8.58 914.41-10.6 914.41-13.05L914.41-13.05Q914.41-15.55 913.36-17.55 912.31-19.55 910.53-20.73 908.76-21.9 906.61-21.9L906.61-21.9Q904.41-21.9 902.66-20.7 900.91-19.5 899.86-17.53 898.81-15.55 898.81-13ZM939.66-26.35L939.66-21.4Q936.46-21.35 933.98-19.95 931.51-18.55 930.46-16L930.46-16 930.46 0 924.96 0 924.96-26.15 930.06-26.15 930.06-20.3Q931.41-23 933.61-24.63 935.81-26.25 938.26-26.4L938.26-26.4Q938.76-26.4 939.08-26.4 939.41-26.4 939.66-26.35L939.66-26.35ZM961.2 0L955.6 0 955.6-35.5 961.2-35.5 961.2 0ZM965.55 0L979.45-35.5 984.75-35.5 998.55 0 992.65 0 988.9-9.65 975.2-9.65 971.5 0 965.55 0ZM976.2-13.8L987.8-13.8 982.1-29.35 976.2-13.8Z"
                                                                  opacity="1" transform="matrix(1,0,0,1,0,0)"
                                                                  fill="#313131" class="slogan-text-1"
                                                                  data-fill-palette-color="secondary"
                                                                  id="text-1"></path>
                                                        </svg>
                                                    </g>
                                                </svg>
                                            </g>
                                        </svg>
                                    </g>
                                </svg>
                            </g>
                            <g>
                                <svg viewBox="0 0 203.4246286448672 203.4246286448672" height="203.4246286448672"
                                     width="203.4246286448672">
                                    <g>
                                        <svg></svg>
                                    </g>
                                    <g id="icon-0">
                                        <svg viewBox="0 0 203.4246286448672 203.4246286448672"
                                             height="203.4246286448672" width="203.4246286448672">
                                            <g>
                                                <path d="M0 101.712c0-56.174 45.538-101.712 101.712-101.712 56.174 0 101.712 45.538 101.713 101.712 0 56.174-45.538 101.712-101.713 101.713-56.174 0-101.712-45.538-101.712-101.713zM101.712 198.733c53.583 0 97.021-43.438 97.021-97.021 0-53.583-43.438-97.021-97.021-97.02-53.583 0-97.021 43.438-97.02 97.02 0 53.583 43.438 97.021 97.02 97.021z"
                                                      data-fill-palette-color="accent" fill="#313131"
                                                      stroke="transparent"></path>
                                            </g>
                                            <g transform="matrix(1,0,0,1,50.42187001846385,41.75022216104304)">
                                                <svg viewBox="0 0 102.5808886079395 119.92418432278112"
                                                     height="119.92418432278112" width="102.5808886079395">
                                                    <g>
                                                        <svg xmlns="http://www.w3.org/2000/svg" xmlns:xlink="http://www.w3.org/1999/xlink" version="1.1" x="0" y="0" viewBox="11.8 4 76.30000000000003 89.19999999999999" style="enable-background:new 0 0 100 100;" xml:space="preserve" height="119.92418432278112" width="102.5808886079395" class="icon-cg-0" data-fill-palette-color="accent" id="cg-0"><g fill="#313131" data-fill-palette-color="accent"><g fill="#313131" data-fill-palette-color="accent"><path d="M80.1 11.2C76.5 6.5 71.2 4 64.9 4c-4.2 0-7.7 1.4-10.5 4.2-7.6 7.6-7.5 23.6-7.5 40.5 0 13.6 0 29-4.8 33.8-1 1-2.2 1.5-3.9 1.5-3.4 0-5.9-1.1-7.8-3.5-4.7-6-4.8-18.3-3.7-28.8-0.6 0.1-1.2 0.1-1.8 0.1-2.6 0-5.1-0.6-7.3-1.7-1.3 11.8-1.3 27.2 5.5 36 3.6 4.6 8.8 7.1 15 7.1 4.1 0 7.6-1.4 10.4-4.2 7.5-7.5 7.5-23.4 7.5-40.3 0-13.6 0-29.1 4.8-34 1-1 2.3-1.5 4-1.5 3.5 0 6 1.1 7.9 3.6 4.7 6 4.8 18.2 3.6 28.7 0.6-0.1 1.2-0.1 1.8-0.1 2.6 0 5.1 0.6 7.3 1.7 0.1-1.2 0.3-2.4 0.4-3.7C87.1 28.6 85.2 17.7 80.1 11.2z" fill="#313131" data-fill-palette-color="accent"></path><circle
                                                                cx="78.4" cy="61.9" r="9.7" fill="#313131"
                                                                data-fill-palette-color="accent"></circle><path
                                                                d="M23 21.5c-6.2 0-11.2 5-11.2 11.2 0 6.2 5 11.2 11.2 11.2 6.2 0 11.2-5 11.2-11.2C34.2 26.5 29.2 21.5 23 21.5zM23 38.3c-3.1 0-5.6-2.5-5.6-5.6 0-3.1 2.5-5.6 5.6-5.6 3.1 0 5.6 2.5 5.6 5.6C28.6 35.8 26.1 38.3 23 38.3z"
                                                                fill="#313131" data-fill-palette-color="accent"></path></g></g></svg>
                                                    </g>
                                                </svg>
                                            </g>
                                        </svg>
                                    </g>
                                </svg>
                            </g>
                        </svg>
                    </g>
                    <defs></defs>
                </svg>
                <rect width="395.52" height="129.04172956645934" fill="none" stroke="none" visibility="hidden"></rect>
            </g>
        </svg>
    </g>
</svg>