<svg xmlns="http://www.w3.org/2000/svg" version="1.1" xmlns:xlink="http://www.w3.org/1999/xlink" xmlns:svgjs="http://svgjs.dev/svgjs" width="128" height="128" viewBox="0 0 128 128"><g transform="matrix(0.8046875,0,0,0.8046875,12.2944076684349,4.754620230263157)"><svg viewBox="0 0 82 95" data-background-color="#ffffff" preserveAspectRatio="xMidYMid meet" height="148" width="128" xmlns="http://www.w3.org/2000/svg" xmlns:xlink="http://www.w3.org/1999/xlink"><g id="tight-bounds" transform="matrix(1,0,0,1,0.16367544843046744,-0.24049999999999727)"><svg viewBox="0 0 81.67264910313905 95.481" height="95.481" width="81.67264910313905"><g><svg viewBox="0 0 81.67264910313905 95.481" height="95.481" width="81.67264910313905"><g><svg viewBox="0 0 81.67264910313905 95.481" height="95.481" width="81.67264910313905"><g id="textblocktransform"><svg viewBox="0 0 81.67264910313905 95.481" height="95.481" width="81.67264910313905" id="textblock"><g><svg viewBox="0 0 81.67264910313905 95.481" height="95.481" width="81.67264910313905"><g><svg viewBox="0 0 81.67264910313905 95.481" height="95.481" width="81.67264910313905"><g><svg xmlns="http://www.w3.org/2000/svg" xmlns:xlink="http://www.w3.org/1999/xlink" version="1.1" x="0" y="0" viewBox="11.8 4 76.30000000000003 89.19999999999999" style="enable-background:new 0 0 100 100;" xml:space="preserve" height="95.481" width="81.67264910313905" class="icon-icon-0" data-fill-palette-color="accent" id="icon-0"><g fill="#0023ff" data-fill-palette-color="accent"><g fill="#0023ff" data-fill-palette-color="accent"><path d="M80.1 11.2C76.5 6.5 71.2 4 64.9 4c-4.2 0-7.7 1.4-10.5 4.2-7.6 7.6-7.5 23.6-7.5 40.5 0 13.6 0 29-4.8 33.8-1 1-2.2 1.5-3.9 1.5-3.4 0-5.9-1.1-7.8-3.5-4.7-6-4.8-18.3-3.7-28.8-0.6 0.1-1.2 0.1-1.8 0.1-2.6 0-5.1-0.6-7.3-1.7-1.3 11.8-1.3 27.2 5.5 36 3.6 4.6 8.8 7.1 15 7.1 4.1 0 7.6-1.4 10.4-4.2 7.5-7.5 7.5-23.4 7.5-40.3 0-13.6 0-29.1 4.8-34 1-1 2.3-1.5 4-1.5 3.5 0 6 1.1 7.9 3.6 4.7 6 4.8 18.2 3.6 28.7 0.6-0.1 1.2-0.1 1.8-0.1 2.6 0 5.1 0.6 7.3 1.7 0.1-1.2 0.3-2.4 0.4-3.7C87.1 28.6 85.2 17.7 80.1 11.2z" fill="#ffffff" data-fill-palette-color="accent"></path><circle cx="78.4" cy="61.9" r="9.7" fill="#ffffff" data-fill-palette-color="accent"></circle><path d="M23 21.5c-6.2 0-11.2 5-11.2 11.2 0 6.2 5 11.2 11.2 11.2 6.2 0 11.2-5 11.2-11.2C34.2 26.5 29.2 21.5 23 21.5zM23 38.3c-3.1 0-5.6-2.5-5.6-5.6 0-3.1 2.5-5.6 5.6-5.6 3.1 0 5.6 2.5 5.6 5.6C28.6 35.8 26.1 38.3 23 38.3z" fill="#ffffff" data-fill-palette-color="accent"></path></g></g></svg></g></svg></g></svg></g></svg></g></svg></g></svg></g><defs></defs></svg><rect width="81.67264910313905" height="95.481" fill="none" stroke="none" visibility="hidden"></rect></g></svg></g></svg>